<?xml version="1.0" encoding="UTF-8" standalone="no"?>
<!-- Created with Inkscape (http://www.inkscape.org/) -->

<svg
   width="8.0366135mm"
   height="2.5540431mm"
   viewBox="0 0 8.0366135 2.5540431"
   version="1.1"
   id="svg1"
   xml:space="preserve"
   xmlns="http://www.w3.org/2000/svg"
   xmlns:svg="http://www.w3.org/2000/svg"><defs
     id="defs1" /><g
     id="layer1"
     transform="translate(-62.909495,-212.68847)"><g
       id="layer6"
       transform="matrix(0.26458333,0,0,0.26458333,71.118132,163.0629)"><circle
         cx="-3.0981514"
         cy="190.53108"
         r="0.61200005"
         fill="#40a02b"
         id="circle15-6-9-0-4"
         style="fill-opacity:1;stroke-width:0.204" /><rect
         x="-1.0581582"
         y="189.51108"
         width="0.40799999"
         height="4.0799999"
         fill="#40a02b"
         id="rect15-1-9-0-0"
         style="fill-opacity:1;stroke-width:0.204"><animate
           attributeName="opacity"
           values="1;0;1"
           dur="1.2s"
           repeatCount="indefinite" /></rect><path
         d="m -16.174027,188.1454 -0.0072,4.11222 c 0.0336,0.55528 0.619317,-0.0283 0.619317,-0.0283 0,0 0.583692,-4.50572 0.179626,-4.36319 z"
         id="path2-8-0-4-6"
         style="fill:#ccd0da;fill-opacity:1;stroke-width:0.20657" /><path
         d="m -10.538157,192.25686 c 0,0 0.0741,0.22067 0.31382,0.22263 0.2396897,0.002 0.2993897,-0.22974 0.2993897,-0.22974 l 0.65007,-1.27543 0.68247,1.26474 c 0,0 0.0499,0.2457 0.30876,0.24539 0.25885,-4.1e-4 0.30444,-0.2347 0.30444,-0.2347 l 0.874353,-2.71006 c -8.24e-4,-0.13997 -0.0072,-0.2871 -0.263574,-0.2942 -0.180632,-0.005 -0.3993057,0.20093 -0.5101577,0.38003 -0.197223,0.31855 -0.4375313,1.87245 -0.4375313,1.87245 l -0.64589,-1.26347 c 0,0 -0.05591,-0.1931 -0.308706,-0.19161 -0.25287,0.002 -0.298944,0.18322 -0.298944,0.18322 l -0.5876267,1.28009 c 0,0 -0.251237,-1.42156 -0.378592,-1.74941 -0.05967,-0.1536 -0.310027,-0.51363 -0.496034,-0.49342 -0.197945,0.0262 -0.315577,0.20254 -0.267096,0.37554 0,0 0.496806,1.78328 0.760849,2.61795 z"
         id="path7-0-1-7-8-0-9"
         style="fill:#ccd0da;fill-opacity:1;stroke-width:0.17961" /><path
         d="m -17.315093,190.37808 c 0.112323,0.003 0.07928,-0.62685 0.07928,-0.62685 l -1.185199,0.002 0.0041,-0.84636 c 0,0 -0.02499,-0.1598 0.06857,-0.25772 0.06509,-0.0681 0.154191,-0.0458 0.154191,-0.0458 l 1.30072,-0.0132 c 0,0 0.803514,-0.82173 -0.118141,-0.7786 l -1.843282,-0.007 c -0.412504,-0.002 -0.361941,0.4036 -0.361941,0.4036 l -0.0029,0.53355 c 0.0054,1.2187 0.0013,2.43773 -0.0031,3.65626 0,0 0.127507,0.1512 0.375168,0.15138 0.336196,2.4e-4 0.380511,-0.14556 0.380511,-0.14556 l 0.01987,-1.52569 c 0,0 -0.01567,-0.24408 0.117953,-0.37562 0.133627,-0.13154 0.383093,-0.11441 0.383093,-0.11441"
         id="path8-2-1-51-0"
         style="fill:#ccd0da;fill-opacity:1;stroke-width:0.199093" /><path
         id="path4-7-8-6-4"
         mask="none"
         d="m -13.274038,189.48252 c -0.866047,0.004 -1.569557,0.67233 -1.567386,1.55245 0.0022,0.88032 0.697776,1.49092 1.564027,1.4898 0.866228,-10e-4 1.575677,-0.61349 1.575673,-1.49379 l -4e-4,-0.008 c -0.0045,-0.88019 -0.660371,-1.54803 -1.526494,-1.54467 z m 0.02167,0.57661 c 0.545159,-0.002 0.700185,0.39136 0.700185,0.96954 v 0.0324 c 0,0.57806 -0.166544,0.8934 -0.711588,0.89403 -0.544947,7.6e-4 -0.758087,-0.37646 -0.759504,-0.95441 -0.0015,-0.57799 0.209352,-0.93943 0.754334,-0.94169 z"
         style="fill:#ccd0da;fill-opacity:1;stroke-width:0.22889" /><text
         x="-31.531029"
         y="192.22221"
         id="text16-0-6-4"
         style="font-style:normal;font-variant:normal;font-weight:normal;font-stretch:normal;font-size:7.61599px;font-family:Sans;text-align:start;text-anchor:start;fill:#ccd0da;fill-opacity:1;stroke-width:0.204"><tspan
           id="tspan16-3-9-85"
           x="-31.531029"
           y="192.22221"
           style="font-style:normal;font-variant:normal;font-weight:bold;font-stretch:normal;font-size:6.528px;font-family:Sans;fill:#ccd0da;fill-opacity:1;stroke-width:0.204">Ke</tspan></text><path
         id="path18-8"
         d="m -23.193427,188.69773 c 0.430667,1.15011 0.862547,2.30065 1.281648,3.45463 -0.0493,0.418 -0.39645,0.58489 -0.81758,0.58119 -0.424,-0.004 -0.455205,-0.009 -0.455205,-0.009 l -0.135726,0.48613 -0.11501,0.19109 c 0,0 0.21949,0.0438 0.92088,0.0243 0.75355,0.006 1.267,-0.90313 1.43238,-1.32999 h 4.1e-4 l 0.45343,-0.96023 1.02318,-2.42887 -0.93194,-0.002 -0.85346,2.53526 -0.86461,-2.54243 z"
         style="fill:#ccd0da;fill-opacity:1;stroke-width:0.204" /><rect
         x="-31.024757"
         y="195.48601"
         width="0.98758751"
         height="0.98758751"
         rx="0.24689688"
         fill="#6c6f85"
         opacity="0.4"
         id="rect4-29-4-47-7-2"
         style="opacity:1;fill:#40a02b;fill-opacity:1;stroke-width:0.123449" /><rect
         x="-29.173042"
         y="194.9922"
         width="0.98758751"
         height="0.98758751"
         rx="0.24689688"
         fill="#6c6f85"
         opacity="0.3"
         id="rect5-96-0-9-8-6"
         style="opacity:1;fill:#40a02b;fill-opacity:1;stroke-width:0.123449" /><rect
         x="-27.321297"
         y="194.62186"
         width="0.98758751"
         height="0.98758751"
         rx="0.24689688"
         fill="#6c6f85"
         opacity="0.4"
         id="rect6-0-9-3-2-0"
         style="opacity:1;fill:#40a02b;fill-opacity:1;stroke-width:0.123449" /><rect
         x="-25.469582"
         y="194.49843"
         width="0.98758751"
         height="0.98758751"
         rx="0.24689688"
         fill="#6c6f85"
         opacity="0.3"
         id="rect7-27-1-9-5-6"
         style="opacity:1;fill:#40a02b;fill-opacity:1;stroke-width:0.123449" /><rect
         x="-23.617867"
         y="194.62186"
         width="0.98758751"
         height="0.98758751"
         rx="0.24689688"
         fill="#6c6f85"
         opacity="0.4"
         id="rect8-6-9-2-3-6"
         style="opacity:1;fill:#40a02b;fill-opacity:1;stroke-width:0.123449" /><rect
         x="-21.766129"
         y="194.9922"
         width="0.98758751"
         height="0.98758751"
         rx="0.24689688"
         fill="#6c6f85"
         opacity="0.3"
         id="rect9-1-6-8-4-4"
         style="opacity:1;fill:#e64d2d;fill-opacity:1;stroke-width:0.123449" /><rect
         x="-19.914406"
         y="195.48601"
         width="0.98758751"
         height="0.98758751"
         rx="0.24689688"
         fill="#6c6f85"
         opacity="0.4"
         id="rect10-3-2-3-9-6"
         style="opacity:1;fill:#40a02b;fill-opacity:1;stroke-width:0.123449" /><rect
         x="-18.06266"
         y="195.85634"
         width="0.98758751"
         height="0.98758751"
         rx="0.24689688"
         fill="#6c6f85"
         opacity="0.3"
         id="rect11-2-5-01-0-2"
         style="opacity:1;fill:#40a02b;fill-opacity:1;stroke-width:0.123449" /><rect
         x="-16.210976"
         y="196.10326"
         width="0.98758751"
         height="0.98758751"
         rx="0.24689688"
         fill="#6c6f85"
         opacity="0.4"
         id="rect12-1-4-78-2-8"
         style="opacity:1;fill:#40a02b;fill-opacity:1;stroke-width:0.123449" /><rect
         x="-14.359214"
         y="196.22668"
         width="0.98758751"
         height="0.98758751"
         rx="0.24689688"
         fill="#6c6f85"
         opacity="0.3"
         id="rect13-5-4-91-0-9"
         style="opacity:1;fill:#40a02b;fill-opacity:1;stroke-width:0.123449" /><rect
         x="-12.507491"
         y="196.22668"
         width="0.98758751"
         height="0.98758751"
         rx="0.24689688"
         fill="#6c6f85"
         opacity="0.4"
         id="rect14-9-9-5-1-6"
         style="opacity:1;fill:#e64d2d;fill-opacity:1;stroke-width:0.123449" /></g></g></svg>
