<?xml version="1.0" encoding="UTF-8" standalone="no"?>
<!-- Created with Inkscape (http://www.inkscape.org/) -->

<svg
   width="2.7929497mm"
   height="3.2767382mm"
   viewBox="0 0 2.7929497 3.2767382"
   version="1.1"
   id="svg1"
   xml:space="preserve"
   xmlns="http://www.w3.org/2000/svg"
   xmlns:svg="http://www.w3.org/2000/svg"><defs
     id="defs1" /><g
     id="layer1"
     transform="translate(-87.799804,-74.514901)"><rect
       style="fill:#45475a;fill-opacity:1;stroke-width:0.238508"
       id="rect1"
       width="184.40799"
       height="47.375538"
       x="11.102566"
       y="60.401039" /><rect
       style="fill:#181825;fill-opacity:1;stroke-width:0.285388"
       id="rect2-3"
       width="36.733746"
       height="30.366465"
       x="62.921745"
       y="69.375076"
       ry="8.2605152" /><g
       id="g23"
       transform="matrix(0.74078217,0,0,0.74078217,22.875312,19.441908)"><path
         id="path19"
         style="fill:#ccd0da;fill-opacity:1;fill-rule:nonzero;stroke-width:0.0182938;stroke-dasharray:none"
         d="m 89.111602,75.830859 a 1.468714,1.468714 0 0 0 -1.468433,1.468433 1.468714,1.468714 0 0 0 1.468433,1.468433 1.468714,1.468714 0 0 0 1.46913,-1.468433 1.468714,1.468714 0 0 0 -1.46913,-1.468433 z m 0,0.369027 a 1.13179,1.13179 0 0 1 1.131495,1.131495 1.13179,1.13179 0 0 1 -1.131495,1.132193 1.13179,1.13179 0 0 1 -1.132193,-1.132193 1.13179,1.13179 0 0 1 1.132193,-1.131495 z" /><path
         id="path21"
         style="fill:#ccd0da;fill-opacity:1;fill-rule:nonzero;stroke-width:0.0182938;stroke-dasharray:none"
         d="m 89.108811,76.66797 a 0.66357555,0.66357555 0 0 0 -0.66341,0.663411 0.66357555,0.66357555 0 0 0 0.66341,0.664109 0.66357555,0.66357555 0 0 0 0.663411,-0.664109 0.66357555,0.66357555 0 0 0 -0.663411,-0.663411 z m 0.01186,0.281828 a 0.37666259,0.37666259 0 0 1 0.3767,0.3767 0.37666259,0.37666259 0 0 1 -0.3767,0.3767 0.37666259,0.37666259 0 0 1 -0.3767,-0.3767 0.37666259,0.37666259 0 0 1 0.3767,-0.3767 z" /><path
         id="rect22"
         style="fill:#ccd0da;fill-opacity:1;fill-rule:nonzero;stroke:#181825;stroke-width:0.152721;stroke-dasharray:none;stroke-opacity:1"
         d="m 91.274345,75.318563 -0.70774,0.01703 -0.0094,-0.770343 -0.579064,0.752181 0.01525,0.536143 -1.04017,1.384318 c 0,0 -0.03804,0.129794 0.08994,0.239417 0.117471,0.100668 0.244451,-0.01301 0.244451,-0.01301 l 1.037082,-1.388075 0.485481,-0.0071 z" /></g></g></svg>
