<?xml version="1.0" encoding="UTF-8" standalone="no"?>
<!-- Created with Inkscape (http://www.inkscape.org/) -->

<svg
   width="2.9264362mm"
   height="2.9264364mm"
   viewBox="0 0 2.9264362 2.9264364"
   version="1.1"
   id="svg1"
   xml:space="preserve"
   xmlns="http://www.w3.org/2000/svg"
   xmlns:svg="http://www.w3.org/2000/svg"><defs
     id="defs1" /><g
     id="layer1"
     transform="translate(-173.85502,-75.104461)"><rect
       style="fill:#45475a;fill-opacity:1;stroke-width:0.238508"
       id="rect1"
       width="184.40799"
       height="47.375538"
       x="11.102566"
       y="60.401039" /><rect
       style="fill:#181825;fill-opacity:1;stroke-width:0.285388"
       id="rect2-3-1"
       width="36.733746"
       height="30.366465"
       x="149.02319"
       y="69.401703"
       ry="8.3503532" /><g
       id="g26"><path
         id="path24"
         style="fill:#ccd0da;fill-opacity:1;fill-rule:nonzero;stroke:#181825;stroke-width:0;stroke-dasharray:none;stroke-opacity:1"
         d="m 175.3185,75.10446 a 1.463212,1.463212 0 0 0 -1.46348,1.462959 1.463212,1.463212 0 0 0 1.46348,1.463477 1.463212,1.463212 0 0 0 1.46296,-1.463477 1.463212,1.463212 0 0 0 -1.46296,-1.462959 z m -0.009,0.268717 a 1.1678874,1.1678874 0 0 1 1.16788,1.167887 1.1678874,1.1678874 0 0 1 -1.16788,1.167888 1.1678874,1.1678874 0 0 1 -1.16789,-1.167888 1.1678874,1.1678874 0 0 1 1.16789,-1.167887 z" /><path
         id="rect25"
         style="fill:#ccd0da;fill-opacity:1;fill-rule:nonzero;stroke:#181825;stroke-width:0;stroke-dasharray:none;stroke-opacity:1"
         d="m 175.19757,75.87754 v 0.769979 c -6e-5,6.89e-4 5e-5,0.0014 0,0.0021 -0.001,0.02266 0.007,0.04599 0.0238,0.06356 l 0.46458,0.322978 c 0.0549,0.03598 0.0955,0.0083 0.12246,-0.0145 0.0367,-0.03112 0.0679,-0.1055 0.0298,-0.131316 l -0.4408,-0.29869 -0.001,-0.720886 c -7e-5,-0.04602 -0.0142,-0.07623 -0.095,-0.07539 -0.0808,8.47e-4 -0.10388,0.01344 -0.10388,0.08216 z" /></g></g></svg>
