<?xml version="1.0" encoding="UTF-8" standalone="no"?>
<!-- Created with Inkscape (http://www.inkscape.org/) -->

<svg
   width="210mm"
   height="297mm"
   viewBox="0 0 210 297"
   version="1.1"
   id="svg1"
   xml:space="preserve"
   xmlns="http://www.w3.org/2000/svg"
   xmlns:svg="http://www.w3.org/2000/svg"><defs
     id="defs1"><rect
       x="478.58865"
       y="324.22604"
       width="47.148411"
       height="18.084322"
       id="rect14" /><rect
       x="341.01865"
       y="330.68475"
       width="34.231037"
       height="15.500847"
       id="rect13" /><rect
       x="158.07635"
       y="322.93433"
       width="41.981461"
       height="26.803549"
       id="rect12" /><rect
       x="437.51678"
       y="321.51547"
       width="64.010521"
       height="34.376614"
       id="rect9" /><rect
       x="269.45187"
       y="318.77527"
       width="73.366112"
       height="32.77145"
       id="rect8" /><rect
       x="108.50593"
       y="317.76736"
       width="49.408951"
       height="33.423702"
       id="rect7" /><rect
       x="607.11652"
       y="286.76566"
       width="91.067474"
       height="17.438454"
       id="rect6" /><rect
       x="444.3576"
       y="286.11981"
       width="62.003387"
       height="17.438454"
       id="rect5" /><rect
       x="277.72351"
       y="284.18219"
       width="55.544704"
       height="16.792583"
       id="rect4" /><rect
       x="116.25635"
       y="282.89047"
       width="49.086018"
       height="18.084322"
       id="rect3" /></defs><g
     id="layer1"><rect
       style="fill:#45475a;fill-opacity:1;stroke-width:0.238508"
       id="rect1"
       width="184.40799"
       height="47.375538"
       x="11.102566"
       y="60.401039" /><rect
       style="fill:#181825;fill-opacity:1;stroke-width:0.285388"
       id="rect2"
       width="36.733746"
       height="30.366465"
       x="19.816891"
       y="69.359116"
       ry="8.2605152" /><rect
       style="fill:#181825;fill-opacity:1;stroke-width:0.285388"
       id="rect2-3"
       width="36.733746"
       height="30.366465"
       x="62.921745"
       y="69.375076"
       ry="8.2605152" /><rect
       style="fill:#181825;fill-opacity:1;stroke-width:0.285388"
       id="rect2-6"
       width="36.733746"
       height="30.366465"
       x="105.91838"
       y="69.385742"
       ry="8.2802944" /><rect
       style="fill:#181825;fill-opacity:1;stroke-width:0.285388"
       id="rect2-3-1"
       width="36.733746"
       height="30.366465"
       x="149.02319"
       y="69.401703"
       ry="8.3503532" /><text
       xml:space="preserve"
       transform="matrix(0.26458333,0,0,0.26458333,2.6458334,-0.06379506)"
       id="text2"
       style="text-align:start;writing-mode:lr-tb;direction:ltr;white-space:pre;shape-inside:url(#rect3);fill:#ccd0da;fill-opacity:1"><tspan
         x="116.25586"
         y="293.80913"
         id="tspan1">WPM</tspan></text><text
       xml:space="preserve"
       transform="matrix(0.26458333,0,0,0.26458333,-3.6666667e-8,-0.39585045)"
       id="text3"
       style="text-align:start;writing-mode:lr-tb;direction:ltr;white-space:pre;shape-inside:url(#rect4);fill:#ccd0da;fill-opacity:1"><tspan
         x="277.72266"
         y="295.10014"
         id="tspan2">Accuracy</tspan></text><text
       xml:space="preserve"
       transform="matrix(0.26458333,0,0,0.26458333,1.0583333,-0.88625575)"
       id="text4"
       style="text-align:start;writing-mode:lr-tb;direction:ltr;white-space:pre;shape-inside:url(#rect5);fill:#ccd0da;fill-opacity:1"><tspan
         x="444.35742"
         y="297.03764"
         id="tspan3">Score</tspan></text><text
       xml:space="preserve"
       transform="matrix(0.26458333,0,0,0.26458333,-3.1750001,-1.0160342)"
       id="text5"
       style="text-align:start;writing-mode:lr-tb;direction:ltr;white-space:pre;shape-inside:url(#rect6);fill:#ccd0da;fill-opacity:1"><tspan
         x="607.11719"
         y="297.68413"
         id="tspan4">Time Spent (m)</tspan></text><text
       xml:space="preserve"
       transform="matrix(0.26458333,0,0,0.26458333,-0.52916667,-1.0583333)"
       id="text6"
       style="font-size:24px;text-align:start;writing-mode:lr-tb;direction:ltr;white-space:pre;shape-inside:url(#rect7);fill:#ccd0da;fill-opacity:1;fill-rule:nonzero;stroke-width:1.00157;stroke-dasharray:none"><tspan
         x="108.50586"
         y="339.60458"
         id="tspan5">55.1</tspan></text><text
       xml:space="preserve"
       transform="matrix(0.26458333,0,0,0.26458333,-2.1166667,-1.5875)"
       id="text7"
       style="font-size:24px;text-align:start;writing-mode:lr-tb;direction:ltr;white-space:pre;shape-inside:url(#rect8);fill:#ccd0da;fill-opacity:1;fill-rule:nonzero;stroke-width:1.00157;stroke-dasharray:none"><tspan
         x="269.45117"
         y="340.6124"
         id="tspan6">97.1%</tspan></text><text
       xml:space="preserve"
       transform="matrix(0.26458333,0,0,0.26458333,-3.026424,-2.221519)"
       id="text8"
       style="font-size:24px;text-align:start;writing-mode:lr-tb;direction:ltr;white-space:pre;shape-inside:url(#rect9);fill:#ccd0da;fill-opacity:1;fill-rule:nonzero;stroke-width:1.00157;stroke-dasharray:none"><tspan
         x="437.51758"
         y="343.35263"
         id="tspan7">2025</tspan></text><text
       xml:space="preserve"
       transform="matrix(0.26458333,0,0,0.26458333,-1.5709916,0.65052743)"
       id="text11"
       style="font-size:10.6667px;text-align:start;writing-mode:lr-tb;direction:ltr;white-space:pre;shape-inside:url(#rect12);fill:#a6e3a1;fill-opacity:1;fill-rule:nonzero;stroke-width:1.00157;stroke-dasharray:none"><tspan
         x="158.07617"
         y="332.63896"
         id="tspan8">+ 2.7</tspan></text><text
       xml:space="preserve"
       transform="matrix(0.26458333,0,0,0.26458333,-2.6458334,-1.5875)"
       id="text12"
       style="font-size:10.6667px;text-align:start;writing-mode:lr-tb;direction:ltr;white-space:pre;shape-inside:url(#rect13);fill:#a6e3a1;fill-opacity:1;fill-rule:nonzero;stroke-width:1.00157;stroke-dasharray:none"><tspan
         x="341.01953"
         y="340.39091"
         id="tspan9">+1.8%</tspan></text><text
       xml:space="preserve"
       transform="matrix(0.26458333,0,0,0.26458333,1.0583333,0)"
       id="text13"
       style="font-size:10.6667px;text-align:start;writing-mode:lr-tb;direction:ltr;white-space:pre;shape-inside:url(#rect14);fill:#f38ba8;fill-opacity:1;fill-rule:nonzero;stroke-width:1.00157;stroke-dasharray:none"><tspan
         x="478.58789"
         y="333.93193"
         id="tspan10">-1920</tspan></text><g
       id="g24"><path
         id="path14"
         style="fill:#ccd0da;fill-opacity:1;fill-rule:nonzero;stroke-width:0.0149971;stroke-dasharray:none"
         d="m 44.145915,75.648476 c -0.01402,0 -0.02799,9.7e-5 -0.04194,4.07e-4 l -0.0057,0.311086 a 1.5694942,1.5694942 0 0 1 0.664518,0.163279 l 0.165722,-0.301721 c -0.237661,-0.110922 -0.503023,-0.17305 -0.7826,-0.173051 z m -0.351804,0.03339 c -0.280595,0.05401 -0.538921,0.171543 -0.758984,0.336739 l 0.156765,0.206848 A 1.5694942,1.5694942 0 0 1 43.78841,75.9844 Z m 1.462999,0.336739 -0.173459,0.315972 a 1.5694942,1.5694942 0 0 1 0.357505,0.43894 l 0.32045,-0.179567 C 45.635038,76.368914 45.462447,76.172831 45.25711,76.018603 Z m -2.453669,0.20644 c -0.150222,0.158069 -0.272699,0.342285 -0.359947,0.545622 l 0.209291,0.07574 a 1.5694942,1.5694942 0 0 1 0.300092,-0.423874 z m 3.110858,0.722746 -0.330223,0.184859 a 1.5694942,1.5694942 0 0 1 0.0513,0.396594 1.5694942,1.5694942 0 0 1 -4.06e-4,0.01466 h 0.362797 c 3.34e-4,-0.01451 4.13e-4,-0.02906 4.07e-4,-0.04357 0,-0.192574 -0.02934,-0.377942 -0.08388,-0.552543 z m -3.568528,0.11686 c -0.03372,0.13979 -0.05171,0.285538 -0.05171,0.435683 -5e-6,0.01451 7.3e-5,0.02906 4.07e-4,0.04357 0,0 0.01622,0.08238 0.120933,0.08306 0.03585,2.46e-4 0.063,-0.0064 0.08306,-0.01588 a 1.5694942,1.5694942 0 0 1 -0.0024,-0.08184 1.5694942,1.5694942 0 0 1 0.05008,-0.392115 z" /><path
         style="fill:#ccd0da;fill-opacity:1;fill-rule:nonzero;stroke-width:0.0149971;stroke-dasharray:none"
         d="m 43.793091,77.234555 c 0,0 -0.209865,0.06332 -0.154736,0.256281 0.05429,0.19002 0.24661,0.178914 0.24661,0.178914 l 1.972882,-0.715653 z"
         id="path16" /></g><g
       id="g23"
       transform="matrix(0.74078217,0,0,0.74078217,22.875312,19.441908)"><path
         id="path19"
         style="fill:#ccd0da;fill-opacity:1;fill-rule:nonzero;stroke-width:0.0182938;stroke-dasharray:none"
         d="m 89.111602,75.830859 a 1.468714,1.468714 0 0 0 -1.468433,1.468433 1.468714,1.468714 0 0 0 1.468433,1.468433 1.468714,1.468714 0 0 0 1.46913,-1.468433 1.468714,1.468714 0 0 0 -1.46913,-1.468433 z m 0,0.369027 a 1.13179,1.13179 0 0 1 1.131495,1.131495 1.13179,1.13179 0 0 1 -1.131495,1.132193 1.13179,1.13179 0 0 1 -1.132193,-1.132193 1.13179,1.13179 0 0 1 1.132193,-1.131495 z" /><path
         id="path21"
         style="fill:#ccd0da;fill-opacity:1;fill-rule:nonzero;stroke-width:0.0182938;stroke-dasharray:none"
         d="m 89.108811,76.66797 a 0.66357555,0.66357555 0 0 0 -0.66341,0.663411 0.66357555,0.66357555 0 0 0 0.66341,0.664109 0.66357555,0.66357555 0 0 0 0.663411,-0.664109 0.66357555,0.66357555 0 0 0 -0.663411,-0.663411 z m 0.01186,0.281828 a 0.37666259,0.37666259 0 0 1 0.3767,0.3767 0.37666259,0.37666259 0 0 1 -0.3767,0.3767 0.37666259,0.37666259 0 0 1 -0.3767,-0.3767 0.37666259,0.37666259 0 0 1 0.3767,-0.3767 z" /><path
         id="rect22"
         style="fill:#ccd0da;fill-opacity:1;fill-rule:nonzero;stroke:#181825;stroke-width:0.152721;stroke-dasharray:none;stroke-opacity:1"
         d="m 91.274345,75.318563 -0.70774,0.01703 -0.0094,-0.770343 -0.579064,0.752181 0.01525,0.536143 -1.04017,1.384318 c 0,0 -0.03804,0.129794 0.08994,0.239417 0.117471,0.100668 0.244451,-0.01301 0.244451,-0.01301 l 1.037082,-1.388075 0.485481,-0.0071 z" /></g><path
       id="path23"
       style="fill:#ccd0da;fill-opacity:1;fill-rule:nonzero;stroke:#181825;stroke-width:0;stroke-dasharray:none;stroke-opacity:1"
       d="m 128.23727,75.910786 -0.0902,-0.271091 -0.35147,0.145898 0.58359,1.744201 0.1459,0.451082 0.21238,-0.0928 -0.24666,-1.015966 c 0,0 0.26033,-0.247838 0.6209,-0.248749 0.2982,-7.46e-4 0.41874,0.181931 0.75148,0.233385 0.35951,0.05559 0.83555,-0.01987 0.83555,-0.01987 l -0.25483,-0.871509 c 0,0 -0.4427,0.09574 -0.66299,0.06721 -0.30677,-0.03973 -0.66792,-0.288004 -0.86898,-0.325726 -0.34115,-0.09443 -0.67467,0.203935 -0.67467,0.203935 z" /></g></svg>
