<?xml version="1.0" encoding="UTF-8" standalone="no"?>
<!-- Created with Inkscape (http://www.inkscape.org/) -->

<svg
   width="2.9031415mm"
   height="2.3411765mm"
   viewBox="0 0 2.9031415 2.3411765"
   version="1.1"
   id="svg1"
   xml:space="preserve"
   xmlns="http://www.w3.org/2000/svg"
   xmlns:svg="http://www.w3.org/2000/svg"><defs
     id="defs1" /><g
     id="layer1"
     transform="translate(-127.7956,-75.639703)"><rect
       style="fill:#45475a;fill-opacity:1;stroke-width:0.238508"
       id="rect1"
       width="184.40799"
       height="47.375538"
       x="11.102566"
       y="60.401039" /><rect
       style="fill:#181825;fill-opacity:1;stroke-width:0.285388"
       id="rect2-6"
       width="36.733746"
       height="30.366465"
       x="105.91838"
       y="69.385742"
       ry="8.2802944" /><path
       id="path23"
       style="fill:#ccd0da;fill-opacity:1;fill-rule:nonzero;stroke:#181825;stroke-width:0;stroke-dasharray:none;stroke-opacity:1"
       d="m 128.23727,75.910786 -0.0902,-0.271091 -0.35147,0.145898 0.58359,1.744201 0.1459,0.451082 0.21238,-0.0928 -0.24666,-1.015966 c 0,0 0.26033,-0.247838 0.6209,-0.248749 0.2982,-7.46e-4 0.41874,0.181931 0.75148,0.233385 0.35951,0.05559 0.83555,-0.01987 0.83555,-0.01987 l -0.25483,-0.871509 c 0,0 -0.4427,0.09574 -0.66299,0.06721 -0.30677,-0.03973 -0.66792,-0.288004 -0.86898,-0.325726 -0.34115,-0.09443 -0.67467,0.203935 -0.67467,0.203935 z" /></g></svg>
