<?xml version="1.0" encoding="UTF-8" standalone="no"?>
<!-- Created with Inkscape (http://www.inkscape.org/) -->

<svg
   width="30.374607mm"
   height="11.653053mm"
   viewBox="0 0 30.374607 11.653053"
   version="1.1"
   id="svg1"
   xml:space="preserve"
   sodipodi:docname="keyflow-logo.svg"
   inkscape:version="1.4.2 (ebf0e940d0, 2025-05-08)"
   inkscape:export-filename="keyflow-logo.svg"
   inkscape:export-xdpi="96"
   inkscape:export-ydpi="96"
   xmlns:inkscape="http://www.inkscape.org/namespaces/inkscape"
   xmlns:sodipodi="http://sodipodi.sourceforge.net/DTD/sodipodi-0.dtd"
   xmlns="http://www.w3.org/2000/svg"
   xmlns:svg="http://www.w3.org/2000/svg"><sodipodi:namedview
     id="namedview1"
     pagecolor="#ffffff"
     bordercolor="#000000"
     borderopacity="0.25"
     inkscape:showpageshadow="2"
     inkscape:pageopacity="0.0"
     inkscape:pagecheckerboard="0"
     inkscape:deskcolor="#d1d1d1"
     inkscape:document-units="mm"
     inkscape:zoom="5.6568543"
     inkscape:cx="25.544232"
     inkscape:cy="-17.766058"
     inkscape:window-width="1910"
     inkscape:window-height="1033"
     inkscape:window-x="0"
     inkscape:window-y="0"
     inkscape:window-maximized="1"
     inkscape:current-layer="svg1" /><defs
     id="defs1"><rect
       x="-5.5"
       y="-10"
       width="128.25"
       height="34.25"
       id="rect2" /></defs><path
     id="path3"
     style="fill:#bdc2ce;fill-opacity:1;stroke:none;stroke-width:0.264583;stroke-linecap:round;stroke-linejoin:round"
     d="m 5.0910463,3.0408304 c -1.093404,-0.00518 -1.1360866,1.248001 -1.1360866,1.248001 0,0 -0.057462,1.2833294 1.0534036,1.31515 0.925442,0.026509 1.157552,-0.6201172 1.157552,-0.6201172 l -0.537435,-0.107487 c 0,0 -0.289153,0.3395723 -0.578776,0.2893881 -0.506616,-0.087784 -0.487825,-0.6697266 -0.487825,-0.6697266 l 1.67845,-0.00827 c 0,0 0.112803,-1.4409571 -1.149283,-1.4469401 z m 0.074414,0.5374349 c 0.533667,0.00699 0.529166,0.5539713 0.529166,0.5539713 l -1.066601,0.016536 c 0,2e-7 0.04539,-0.5769578 0.537435,-0.5705073 z"
     sodipodi:nodetypes="ccsccscccccccc"
     inkscape:export-filename="keyflow-logo.svg"
     inkscape:export-xdpi="96"
     inkscape:export-ydpi="96" /><path
     style="fill:#bdc2ce;fill-opacity:1;stroke:none;stroke-width:0.261409;stroke-linecap:round;stroke-linejoin:round"
     d="m 10.442583,5.6225293 -0.01634,-1.665959 1.003185,-0.017883 -0.0046,-0.5161531 -0.995128,0.011816 -0.0099,-0.8840663 1.358474,0.015734 0.0013,-0.4651931 C 11.77846,2.0151696 11.736992,1.9379871 11.640449,1.9351773 L 10.041457,1.935674 C 9.9239803,1.9323206 9.7779894,2.060928 9.7743888,2.2152318 l 6.165e-4,3.4118627"
     id="path5"
     sodipodi:nodetypes="cccccccccccc" /><path
     style="fill:#bdc2ce;fill-opacity:1;stroke:none;stroke-width:0.264583;stroke-linecap:round;stroke-linejoin:round"
     d="m 12.85885,4.9274357 -0.0031,-0.078162 0.02232,-2.3430263 c 0,0 0.0069,-0.1973513 -0.323524,-0.2085025 -0.310688,-0.010483 -0.297182,-0.00128 -0.297182,-0.00128 l -0.0028,2.9134763 c 0,0 0.02966,0.2410115 0.236353,0.3283504 0.180222,0.076155 0.788907,0.051988 0.788907,0.051988 L 13.280758,5.1944 c 0,0 -0.006,-0.089665 -0.08101,-0.098111 -0.06658,-0.0075 -0.154972,0.00594 -0.201944,0.01238 -0.137591,0.018874 -0.140671,-0.1777806 -0.140671,-0.1777806"
     id="path6"
     sodipodi:nodetypes="cccsccsccssc" /><path
     id="path7"
     style="fill:#bdc2ce;fill-opacity:1;stroke:none;stroke-width:0.264583;stroke-linecap:round;stroke-linejoin:round"
     d="m 14.747099,3.0771627 c -0.715216,-3.6e-6 -1.265782,0.5797949 -1.265778,1.2950114 -4e-6,0.7152165 0.550562,1.295015 1.265778,1.2950114 0.715217,4.2e-6 1.131313,-0.5534852 1.131309,-1.2687021 4e-6,-0.7152168 -0.416092,-1.3213249 -1.131309,-1.3213207 z m 0,0.5555217 c 0.297441,0.012248 0.588351,0.3056548 0.588545,0.7302184 6.4e-5,0.4247656 -0.208239,0.794908 -0.588545,0.8071555 -0.384238,-1.608e-4 -0.64685,-0.3736356 -0.646786,-0.798178 1.95e-4,-0.4243406 0.262731,-0.7390353 0.646786,-0.7391959 z"
     sodipodi:nodetypes="cccccccccc" /><path
     style="fill:#bdc2ce;fill-opacity:1;stroke:none;stroke-width:0.264583;stroke-linecap:round;stroke-linejoin:round"
     d="m 16.131327,3.4582981 c -0.02806,-0.1162959 0.0052,-0.2918736 0.180601,-0.2839038 l 0.322715,0.00162 c 0.04575,0.00201 0.111949,0.022491 0.130227,0.1033723 l 0.416512,1.7394287 0.430981,-1.7270263 c 0,0 0.04878,-0.1156396 0.133324,-0.1188558 l 0.366893,5.187e-4 c 0.100732,0.00139 0.126102,0.1090354 0.126102,0.1090354 l 0.414444,1.7115234 0.389922,-1.6897816 C 19.069881,3.1622026 19.168221,3.178524 19.168221,3.178524 l 0.386193,-0.00587 c 0.13689,0.00455 0.186467,0.1541248 0.138373,0.3195143 L 19.074928,5.600726 c 0,0 -0.02865,0.098078 -0.09362,0.098041 l -0.253727,9.768e-4 -0.280526,-1.49e-5 c -0.08411,0.00724 -0.106419,-0.092235 -0.106419,-0.092235 L 17.933789,4.034892 17.550351,5.6099897 c -0.02647,0.084226 -0.107457,0.084528 -0.107457,0.084528 l -0.283747,0.0015 -0.288482,6.568e-4 c -0.06543,-0.0043 -0.09029,-0.070155 -0.09029,-0.070155 z"
     id="path8"
     sodipodi:nodetypes="cccccccccccccccccccccccccc" /><path
     id="rect1"
     style="fill:#bdc2ce;fill-opacity:1;stroke-width:0.0486209;stroke-linecap:round;stroke-linejoin:round"
     d="M 2.892989,2.2801539 1.7505776,3.6764307 1.7526447,2.3463108 C 1.752806,2.2424984 1.7608137,2.1242882 1.6522836,2.1235365 l -0.421599,-0.00292 c -0.1147378,-7.947e-4 -0.148649,0.095341 -0.148649,0.19915 v 3.1288393 c 0,0.032499 -0.010534,0.1736015 0.076302,0.1736015 h 0.5318873 c 0.090969,0 0.072755,-0.060801 0.072755,-0.1274169 l -0.00827,-1.026652 0.4901702,-0.2256693 c 0,0 0.5789525,1.1168347 0.7005821,1.2478553 0.044844,0.04831 0.1028585,0.1191931 0.1595759,0.1236333 0.08991,0.00697 0.3906113,0.00925 0.5431195,0.00426 0.041749,-0.00137 0.093425,-0.079599 0.054708,-0.1474255 -0.133053,-0.2330848 -1.0864603,-1.770992 -1.0864603,-1.770992 0,0 0.9493081,-1.2210823 1.1070814,-1.4269445 0.03786,-0.0494 0.00611,-0.136956 -0.042563,-0.140907 C 3.5020457,2.1174306 3.2416079,2.117991 3.1390287,2.130743 3.0025202,2.147623 2.8929848,2.2801868 2.8929848,2.2801868 Z"
     sodipodi:nodetypes="ccssssssssccsssscssscc" /><path
     id="path18"
     style="fill:#bdc2ce;fill-opacity:1;stroke-width:0.137602"
     d="m 6.4432508,3.1005843 0.9039694,2.3101806 2.751e-4,5.135e-4 C 7.2336682,5.6849635 7.1091922,5.8148623 6.8251336,5.8123675 6.5391362,5.8099231 6.4903923,5.7313346 6.4317005,5.6653312 L 6.2094391,5.9937499 c 0.02474,0.1111135 0.2186698,0.3092904 0.6917764,0.2958995 0.5082838,0.00442 0.8845909,-0.5895393 0.9961465,-0.8774672 l 0.00234,-0.00414 L 8.1983135,4.7572478 8.8884772,3.1189165 8.2350542,3.1054221 7.6593797,4.8155104 7.0761815,3.1005843 Z"
     sodipodi:nodetypes="ccccccccccccccc" /><g
     id="layer6"
     transform="translate(136.29799,-230.73396)"
     inkscape:export-filename="keyflow-logo.svg"
     inkscape:export-xdpi="96"
     inkscape:export-ydpi="96"><circle
       cx="-108.37138"
       cy="233.70381"
       r="0.61200005"
       fill="#40a02b"
       id="circle15-6-9-0-4"
       style="fill:#a6d189;fill-opacity:1;stroke-width:0.204" /><rect
       x="-106.33139"
       y="232.68381"
       width="0.40799999"
       height="4.0799999"
       fill="#40a02b"
       id="rect15-1-9-0-0"
       style="fill:#a6d189;fill-opacity:1;stroke-width:0.204"><animate
         attributeName="opacity"
         values="1;0;1"
         dur="1.2s"
         repeatCount="indefinite" /></rect><rect
       x="-136.29799"
       y="240.65874"
       width="0.98758751"
       height="0.98758751"
       rx="0.24689688"
       fill="#6c6f85"
       opacity="0.4"
       id="rect4-29-4-47-7-2"
       style="opacity:1;fill:#a6d189;fill-opacity:1;stroke-width:0.123449" /><rect
       x="-134.44627"
       y="240.16493"
       width="0.98758751"
       height="0.98758751"
       rx="0.24689688"
       fill="#6c6f85"
       opacity="0.3"
       id="rect5-96-0-9-8-6"
       style="opacity:1;fill:#a6d189;fill-opacity:1;stroke-width:0.123449" /><rect
       x="-132.59453"
       y="239.79459"
       width="0.98758751"
       height="0.98758751"
       rx="0.24689688"
       fill="#6c6f85"
       opacity="0.4"
       id="rect6-0-9-3-2-0"
       style="opacity:1;fill:#a6d189;fill-opacity:1;stroke-width:0.123449" /><rect
       x="-130.74281"
       y="239.67116"
       width="0.98758751"
       height="0.98758751"
       rx="0.24689688"
       fill="#6c6f85"
       opacity="0.3"
       id="rect7-27-1-9-5-6"
       style="opacity:1;fill:#a6d189;fill-opacity:1;stroke-width:0.123449" /><rect
       x="-128.8911"
       y="239.79459"
       width="0.98758751"
       height="0.98758751"
       rx="0.24689688"
       fill="#6c6f85"
       opacity="0.4"
       id="rect8-6-9-2-3-6"
       style="opacity:1;fill:#e78284;fill-opacity:1;stroke-width:0.123449" /><rect
       x="-127.03936"
       y="240.16493"
       width="0.98758751"
       height="0.98758751"
       rx="0.24689688"
       fill="#6c6f85"
       opacity="0.3"
       id="rect9-1-6-8-4-4"
       style="opacity:1;fill:#a6d189;fill-opacity:1;stroke-width:0.123449" /><rect
       x="-125.18764"
       y="240.65874"
       width="0.98758751"
       height="0.98758751"
       rx="0.24689688"
       fill="#6c6f85"
       opacity="0.4"
       id="rect10-3-2-3-9-6"
       style="opacity:1;fill:#a6d189;fill-opacity:1;stroke-width:0.123449" /><rect
       x="-123.33589"
       y="241.02907"
       width="0.98758751"
       height="0.98758751"
       rx="0.24689688"
       fill="#6c6f85"
       opacity="0.3"
       id="rect11-2-5-01-0-2"
       style="opacity:1;fill:#a6d189;fill-opacity:1;stroke-width:0.123449" /><rect
       x="-121.48421"
       y="241.27599"
       width="0.98758751"
       height="0.98758751"
       rx="0.24689688"
       fill="#6c6f85"
       opacity="0.4"
       id="rect12-1-4-78-2-8"
       style="opacity:1;fill:#a6d189;fill-opacity:1;stroke-width:0.123449" /><rect
       x="-119.63245"
       y="241.39941"
       width="0.98758751"
       height="0.98758751"
       rx="0.24689688"
       fill="#6c6f85"
       opacity="0.3"
       id="rect13-5-4-91-0-9"
       style="opacity:1;fill:#a6d189;fill-opacity:1;stroke-width:0.123449" /><rect
       x="-117.78072"
       y="241.39941"
       width="0.98758751"
       height="0.98758751"
       rx="0.24689688"
       fill="#6c6f85"
       opacity="0.4"
       id="rect14-9-9-5-1-6"
       style="opacity:1;fill:#e78284;fill-opacity:1;stroke-width:0.123449" /></g></svg>
