<?xml version="1.0" encoding="UTF-8" standalone="no"?>
<!-- Created with Inkscape (http://www.inkscape.org/) -->

<svg
   width="46.836033mm"
   height="14.444209mm"
   viewBox="0 0 46.836033 14.444209"
   version="1.1"
   id="svg1"
   xml:space="preserve"
   sodipodi:docname="keyflow.svg"
   inkscape:version="1.4.2 (ebf0e940d0, 2025-05-08)"
   xmlns:inkscape="http://www.inkscape.org/namespaces/inkscape"
   xmlns:sodipodi="http://sodipodi.sourceforge.net/DTD/sodipodi-0.dtd"
   xmlns="http://www.w3.org/2000/svg"
   xmlns:svg="http://www.w3.org/2000/svg"><sodipodi:namedview
     id="namedview1"
     pagecolor="#ffffff"
     bordercolor="#000000"
     borderopacity="0.25"
     inkscape:showpageshadow="2"
     inkscape:pageopacity="0.0"
     inkscape:pagecheckerboard="0"
     inkscape:deskcolor="#d1d1d1"
     inkscape:document-units="mm"
     inkscape:zoom="2.8284271"
     inkscape:cx="104.6518"
     inkscape:cy="47.022601"
     inkscape:window-width="1910"
     inkscape:window-height="1033"
     inkscape:window-x="0"
     inkscape:window-y="0"
     inkscape:window-maximized="1"
     inkscape:current-layer="layer1" /><defs
     id="defs1" /><g
     id="layer1"
     transform="translate(74.604402,-567.09936)"><circle
       cx="-36.06171"
       cy="570.83295"
       r="0.84464729"
       fill="#40a02b"
       id="circle15-6-9-0-4"
       style="fill-opacity:1;stroke-width:0.281549" /><rect
       x="-33.246265"
       y="569.42529"
       width="0.56309807"
       height="5.630981"
       fill="#40a02b"
       id="rect15-1-9-0-0"
       style="fill-opacity:1;stroke-width:0.281549"><animate
         attributeName="opacity"
         values="1;0;1"
         dur="1.2s"
         repeatCount="indefinite" /></rect><path
       d="m -52.415165,568.31994 -0.11069,5.29818 c 0.04642,0.76638 1.01087,0.1038 1.01087,0.1038 0,0 0.784644,-6.46971 0.227012,-6.273 z"
       id="path2-8-0-4-6"
       style="fill:#ccd0da;fill-opacity:1;stroke-width:0.285096"
       sodipodi:nodetypes="ccccc" /><path
       d="m -44.642966,573.48187 c 0,0 0.142822,0.33175 0.473691,0.33436 0.330817,0.003 0.413182,-0.31715 0.413182,-0.31715 l 0.897191,-1.76029 0.941905,1.74553 c 0,0 0.06885,0.33906 0.426118,0.33854 0.357263,-5.2e-4 0.501285,-0.29681 0.501285,-0.29681 l 1.178526,-3.64065 c -0.0011,-0.19301 -0.517142,-0.32498 -0.76731,-0.23161 -0.208235,0.0777 -0.207765,0.21126 -0.355229,0.56467 -0.297955,0.71447 -0.602085,2.24295 -0.602085,2.24295 l -0.891422,-1.74381 c 0,0 -0.07715,-0.31089 -0.426066,-0.3088 -0.349022,0.003 -0.412608,0.29733 -0.412608,0.29733 l -0.811008,1.76675 c 0,0 -0.313498,-1.38101 -0.559201,-2.08813 -0.121122,-0.34845 -0.167589,-0.57792 -0.426578,-0.68146 -0.10949,-0.0417 -0.285114,-0.0755 -0.423531,-0.0441 -0.136805,0.0311 -0.358766,0.22001 -0.358766,0.22001 0,0 0.837418,2.45067 1.201838,3.60263 z"
       id="path7-0-1-7-8-0-9"
       style="fill:#ccd0da;fill-opacity:1;stroke-width:0.247887"
       sodipodi:nodetypes="cccccsccascccccssaccc" /><path
       d="m -53.644946,570.96157 -0.0078,-0.99996 -1.725302,0.0209 -0.002,-1.06198 -0.0068,-0.44965 0.422623,0.001 1.939369,-0.0365 -0.0036,-0.62799 c 0,0 0.01043,-0.14501 -0.11288,-0.29159 -0.117315,-0.13927 -0.375521,-0.14084 -0.375521,-0.14084 l -2.432344,0.004 c 0,0 -0.284287,-0.0104 -0.467901,0.19561 -0.20067,0.22586 -0.177093,0.67462 -0.177093,0.67462 l 0.0099,0.41052 c 0.0073,1.68199 5.01e-4,5.39505 5.01e-4,5.39505 l 1.214002,-0.005 c 0,0 -0.0078,-2.1852 -0.012,-3.07453"
       id="path8-2-1-51-0"
       style="fill:#ccd0da;fill-opacity:1;stroke-width:0.274777"
       sodipodi:nodetypes="ccccccccsccsccccc" /><path
       id="path4-7-8-6-4"
       mask="none"
       d="m -48.378312,569.67993 c -1.195271,0.005 -2.166215,0.92792 -2.16322,2.14264 0.003,1.21492 0.96303,2.05767 2.158582,2.0561 1.195516,-0.001 2.17466,-0.84671 2.174654,-2.06163 l -5.52e-4,-0.0104 c -0.0063,-1.21477 -0.911406,-2.13649 -2.10678,-2.13185 z m 0.02973,0.79579 c 0.752398,-0.003 0.966354,0.54015 0.966354,1.33814 v 0.0469 c 0,0.79783 -0.22983,1.23303 -0.982091,1.23392 -0.752105,10e-4 -1.046267,-0.51955 -1.048223,-1.31722 -0.0021,-0.79773 0.28893,-1.29656 1.041087,-1.29969 z"
       style="fill:#ccd0da;fill-opacity:1;stroke-width:0.315901" /><rect
       x="-74.604416"
       y="579.09491"
       width="1.3630115"
       height="1.3630115"
       rx="0.2833752"
       fill="#6c6f85"
       opacity="0.4"
       id="rect4-29-4-47-7-2"
       style="opacity:1;fill:#40a02b;fill-opacity:1;stroke-width:0.170377"
       ry="0.32564098" /><rect
       x="-72.048782"
       y="578.41339"
       width="1.3630115"
       height="1.3630115"
       rx="0.34075287"
       fill="#6c6f85"
       opacity="0.3"
       id="rect5-96-0-9-8-6"
       style="opacity:1;fill:#40a02b;fill-opacity:1;stroke-width:0.170377" /><rect
       x="-69.493111"
       y="577.90222"
       width="1.3630115"
       height="1.3630115"
       rx="0.34075287"
       fill="#6c6f85"
       opacity="0.4"
       id="rect6-0-9-3-2-0"
       style="opacity:1;fill:#40a02b;fill-opacity:1;stroke-width:0.170377" /><rect
       x="-66.9375"
       y="577.73187"
       width="1.3630115"
       height="1.3630115"
       rx="0.34075287"
       fill="#6c6f85"
       opacity="0.3"
       id="rect7-27-1-9-5-6"
       style="opacity:1;fill:#40a02b;fill-opacity:1;stroke-width:0.170377" /><rect
       x="-64.381851"
       y="577.90222"
       width="1.3630115"
       height="1.3630115"
       rx="0.34075287"
       fill="#6c6f85"
       opacity="0.4"
       id="rect8-6-9-2-3-6"
       style="opacity:1;fill:#40a02b;fill-opacity:1;stroke-width:0.170377" /><rect
       x="-61.826199"
       y="578.41339"
       width="1.3630115"
       height="1.3630115"
       rx="0.34075287"
       fill="#6c6f85"
       opacity="0.3"
       id="rect9-1-6-8-4-4"
       style="opacity:1;fill:#e64d2d;fill-opacity:1;stroke-width:0.170377" /><rect
       x="-59.270546"
       y="579.09491"
       width="1.3630115"
       height="1.3630115"
       rx="0.34075287"
       fill="#6c6f85"
       opacity="0.4"
       id="rect10-3-2-3-9-6"
       style="opacity:1;fill:#40a02b;fill-opacity:1;stroke-width:0.170377" /><rect
       x="-56.714897"
       y="579.60602"
       width="1.3630115"
       height="1.3630115"
       rx="0.34075287"
       fill="#6c6f85"
       opacity="0.3"
       id="rect11-2-5-01-0-2"
       style="opacity:1;fill:#40a02b;fill-opacity:1;stroke-width:0.170377" /><rect
       x="-54.159286"
       y="579.94678"
       width="1.3630115"
       height="1.3630115"
       rx="0.34075287"
       fill="#6c6f85"
       opacity="0.4"
       id="rect12-1-4-78-2-8"
       style="opacity:1;fill:#40a02b;fill-opacity:1;stroke-width:0.170377" /><rect
       x="-51.603596"
       y="580.11719"
       width="1.3630115"
       height="1.3630115"
       rx="0.34075287"
       fill="#6c6f85"
       opacity="0.3"
       id="rect13-5-4-91-0-9"
       style="opacity:1;fill:#40a02b;fill-opacity:1;stroke-width:0.170377" /><rect
       x="-49.047943"
       y="580.11719"
       width="1.3630115"
       height="1.3630115"
       rx="0.34075287"
       fill="#6c6f85"
       opacity="0.4"
       id="rect14-9-9-5-1-6"
       style="opacity:1;fill:#e64d2d;fill-opacity:1;stroke-width:0.170377" /><path
       id="path11"
       style="fill:#ccd0da;fill-opacity:1;stroke-width:0.253761"
       d="m -66.78476,568.72243 c -1.505933,-0.0605 -2.398438,1.30478 -2.404552,2.4628 -0.0063,1.1727 0.749971,2.39984 1.868548,2.75206 0.651479,0.20514 2.351558,-0.0543 2.351558,-0.0543 l -0.0047,-1.07555 c 0,0 -1.214349,0.35004 -1.832419,0.22457 -1.299855,-0.26384 -1.186496,-1.30716 -1.186496,-1.30716 l 3.066781,-0.1013 c 0,0 0.345501,-2.81246 -1.85864,-2.9011 z m -0.126898,0.93445 c 1.144748,0.0202 1.061152,1.15141 1.061152,1.15141 l -2.165437,0.0656 c 0.0086,-2.6e-4 -0.0519,-1.23747 1.104285,-1.21702 z"
       sodipodi:nodetypes="cccccccccccccc" /><path
       style="fill:#ccd0da;fill-opacity:1;stroke-width:0.253761"
       d="m -63.898543,569.05387 1.323786,-0.003 0.918056,3.27937 0.842999,-3.26803 1.51228,-1.2e-4 -1.709561,4.30234 c 0,0 -0.360278,1.26908 -0.998298,1.73487 -0.900207,0.65721 -3.062812,0.4456 -3.062812,0.4456 l 0.660686,-0.97314 c 0,0 1.23117,0.21958 1.718436,-0.0868 0.20883,-0.1313 0.341132,-0.43366 0.367544,-0.66893 0.02359,-0.2102 -0.12332,-0.62645 -0.12332,-0.62645 z"
       id="path12" /><path
       style="fill:#ccd0da;fill-opacity:1;stroke:none;stroke-width:0.304699"
       d="m -74.572474,567.51032 0.117419,3.41416 -0.138493,3.17813 1.302392,0.0209 9.96e-4,-2.41274 0.516621,-0.35627 1.691053,2.76906 1.57113,-0.12779 -2.342363,-3.47942 2.312619,-2.93145 -1.51349,-0.0365 -2.235575,2.98309 0.270465,-2.99801 z"
       id="path3"
       sodipodi:nodetypes="cccccccccccccc" /></g></svg>
