<?xml version="1.0" encoding="UTF-8" standalone="no"?>
<!-- Created with Inkscape (http://www.inkscape.org/) -->

<svg
   width="46.836033mm"
   height="14.444209mm"
   viewBox="0 0 46.836033 14.444209"
   version="1.1"
   id="svg1"
   xml:space="preserve"
   xmlns="http://www.w3.org/2000/svg"
   xmlns:svg="http://www.w3.org/2000/svg"><defs
     id="defs1" /><g
     id="layer1"
     transform="translate(74.604402,-567.09936)"><g
       id="layer1-8"
       transform="matrix(5.8278366,0,0,5.8278366,-441.23069,-635.08877)"><circle
         cx="70.298416"
         cy="206.99399"
         r="0.16192502"
         fill="#40a02b"
         id="circle15-6-9-0-4"
         style="fill-opacity:1;stroke-width:0.053975" /><rect
         x="70.838158"
         y="206.72412"
         width="0.10794999"
         height="1.0795"
         fill="#40a02b"
         id="rect15-1-9-0-0"
         style="fill-opacity:1;stroke-width:0.053975"><animate
           attributeName="opacity"
           values="1;0;1"
           dur="1.2s"
           repeatCount="indefinite" /></rect><path
         d="m 66.753226,206.53643 -0.02523,0.94548 c 0.0089,0.14692 0.189778,-0.0282 0.189778,-0.0282 0,0 0.154435,-1.19214 0.04753,-1.15443 z"
         id="path2-8-0-4-6"
         style="fill:#ccd0da;fill-opacity:1;stroke-width:0.054655" /><path
         d="m 68.2392,207.45579 c 0,0 0.02738,0.0636 0.09081,0.0641 0.06342,5.3e-4 0.07921,-0.0608 0.07921,-0.0608 l 0.171998,-0.33746 0.18057,0.33463 c 0,0 0.0132,0.065 0.08169,0.0649 0.06849,-1e-4 0.0961,-0.0569 0.0961,-0.0569 l 0.231339,-0.71704 c -2.18e-4,-0.037 -0.01745,-0.0811 -0.08529,-0.083 -0.04779,-0.001 -0.124434,0.0477 -0.153763,0.095 -0.05218,0.0843 -0.09698,0.50092 -0.09698,0.50092 l -0.170892,-0.3343 c 0,0 -0.01479,-0.0511 -0.08168,-0.0507 -0.06691,5.3e-4 -0.0791,0.0485 -0.0791,0.0485 l -0.155476,0.3387 c 0,0 -0.05364,-0.38025 -0.08734,-0.46699 -0.01579,-0.0406 -0.09486,-0.13178 -0.144071,-0.12643 -0.05237,0.007 -0.09127,0.0484 -0.07844,0.0942 0,0 0.131446,0.47182 0.201308,0.69266 z"
         id="path7-0-1-7-8-0-9"
         style="fill:#ccd0da;fill-opacity:1;stroke-width:0.0475218" /><path
         d="m 66.409934,206.97763 c 0,0 0.106401,-0.0559 0.132973,-0.0855 0.04975,-0.0555 0.01963,-0.10995 -0.03093,-0.11063 l -0.330044,-0.004 -1.23e-4,-0.20582 c 0,0 -0.005,-0.0352 0.01976,-0.0611 0.01722,-0.018 0.05895,-0.0148 0.05895,-0.0148 l 0.304948,-0.004 c 0,0 0.212597,-0.21741 -0.03126,-0.206 l -0.487701,-0.002 c -0.109142,-5.2e-4 -0.09576,0.10679 -0.09576,0.10679 l -7.67e-4,0.14117 c 0.0014,0.32245 9.6e-5,1.03427 9.6e-5,1.03427 0,0 0.09849,0.0748 0.232733,-0.0135 0,0 -0.0022,-0.4005 -0.003,-0.57099"
         id="path8-2-1-51-0"
         style="fill:#ccd0da;fill-opacity:1;stroke-width:0.0526767" /><path
         id="path4-7-8-6-4"
         mask="none"
         d="m 67.523107,206.72693 c -0.229142,10e-4 -0.415279,0.17789 -0.414705,0.41076 5.82e-4,0.23291 0.18462,0.39447 0.413816,0.39417 0.229189,-2.6e-4 0.416898,-0.16232 0.416897,-0.39523 l -1.06e-4,-0.002 c -0.0012,-0.23288 -0.174723,-0.40958 -0.403885,-0.40869 z m 0.0057,0.15256 c 0.14424,-5.2e-4 0.185257,0.10355 0.185257,0.25653 v 0.009 c 0,0.15295 -0.04406,0.23638 -0.188274,0.23655 -0.144184,2e-4 -0.200577,-0.0996 -0.200952,-0.25252 -3.97e-4,-0.15293 0.05539,-0.24856 0.199584,-0.24916 z"
         style="fill:#ccd0da;fill-opacity:1;stroke-width:0.0605605" /><rect
         x="62.9095"
         y="208.30499"
         width="0.26129919"
         height="0.26129919"
         rx="0.065324798"
         fill="#6c6f85"
         opacity="0.4"
         id="rect4-29-4-47-7-2"
         style="opacity:1;fill:#40a02b;fill-opacity:1;stroke-width:0.0326625" /><rect
         x="63.399433"
         y="208.17433"
         width="0.26129919"
         height="0.26129919"
         rx="0.065324798"
         fill="#6c6f85"
         opacity="0.3"
         id="rect5-96-0-9-8-6"
         style="opacity:1;fill:#40a02b;fill-opacity:1;stroke-width:0.0326625" /><rect
         x="63.889374"
         y="208.07634"
         width="0.26129919"
         height="0.26129919"
         rx="0.065324798"
         fill="#6c6f85"
         opacity="0.4"
         id="rect6-0-9-3-2-0"
         style="opacity:1;fill:#40a02b;fill-opacity:1;stroke-width:0.0326625" /><rect
         x="64.379303"
         y="208.04369"
         width="0.26129919"
         height="0.26129919"
         rx="0.065324798"
         fill="#6c6f85"
         opacity="0.3"
         id="rect7-27-1-9-5-6"
         style="opacity:1;fill:#40a02b;fill-opacity:1;stroke-width:0.0326625" /><rect
         x="64.86924"
         y="208.07634"
         width="0.26129919"
         height="0.26129919"
         rx="0.065324798"
         fill="#6c6f85"
         opacity="0.4"
         id="rect8-6-9-2-3-6"
         style="opacity:1;fill:#40a02b;fill-opacity:1;stroke-width:0.0326625" /><rect
         x="65.359177"
         y="208.17433"
         width="0.26129919"
         height="0.26129919"
         rx="0.065324798"
         fill="#6c6f85"
         opacity="0.3"
         id="rect9-1-6-8-4-4"
         style="opacity:1;fill:#e64d2d;fill-opacity:1;stroke-width:0.0326625" /><rect
         x="65.849113"
         y="208.30499"
         width="0.26129919"
         height="0.26129919"
         rx="0.065324798"
         fill="#6c6f85"
         opacity="0.4"
         id="rect10-3-2-3-9-6"
         style="opacity:1;fill:#40a02b;fill-opacity:1;stroke-width:0.0326625" /><rect
         x="66.33905"
         y="208.40297"
         width="0.26129919"
         height="0.26129919"
         rx="0.065324798"
         fill="#6c6f85"
         opacity="0.3"
         id="rect11-2-5-01-0-2"
         style="opacity:1;fill:#40a02b;fill-opacity:1;stroke-width:0.0326625" /><rect
         x="66.828979"
         y="208.46829"
         width="0.26129919"
         height="0.26129919"
         rx="0.065324798"
         fill="#6c6f85"
         opacity="0.4"
         id="rect12-1-4-78-2-8"
         style="opacity:1;fill:#40a02b;fill-opacity:1;stroke-width:0.0326625" /><rect
         x="67.318924"
         y="208.50096"
         width="0.26129919"
         height="0.26129919"
         rx="0.065324798"
         fill="#6c6f85"
         opacity="0.3"
         id="rect13-5-4-91-0-9"
         style="opacity:1;fill:#40a02b;fill-opacity:1;stroke-width:0.0326625" /><rect
         x="67.808861"
         y="208.50096"
         width="0.26129919"
         height="0.26129919"
         rx="0.065324798"
         fill="#6c6f85"
         opacity="0.4"
         id="rect14-9-9-5-1-6"
         style="opacity:1;fill:#e64d2d;fill-opacity:1;stroke-width:0.0326625" /><path
         style="fill:#ccd0da;fill-opacity:1;stroke:none;stroke-width:0.058413"
         d="m 62.912786,206.45065 0.02535,0.56088 -0.02655,0.60927 0.249678,0.004 1.91e-4,-0.46254 0.09904,-0.0683 0.324187,0.53085 0.301197,-0.0245 -0.449048,-0.66703 0.443346,-0.56198 -0.290147,-0.007 -0.428576,0.57188 0.05185,-0.57474 z"
         id="path3" /></g><path
       id="path11"
       style="fill:#ccd0da;fill-opacity:1;stroke-width:0.283512"
       d="m -65.867994,568.88036 c -1.682486,-0.0676 -2.679628,1.45775 -2.686458,2.75153 -0.007,1.31019 0.837896,2.6812 2.087614,3.07471 0.727857,0.22919 2.627251,-0.0607 2.627251,-0.0607 l -0.0053,-1.20164 c 0,0 -1.356718,0.39107 -2.047249,0.2509 -1.452249,-0.29478 -1.3256,-1.46041 -1.3256,-1.46041 l 3.657837,-0.11318 c 0,0 0.154497,-3.14219 -2.308055,-3.24122 z m -0.141775,1.044 c 1.278956,0.0226 1.18556,1.2864 1.18556,1.2864 l -2.41931,0.0733 c 0.0096,-2.9e-4 -0.05798,-1.38254 1.23375,-1.3597 z" /><path
       style="fill:#ccd0da;fill-opacity:1;stroke-width:0.283512"
       d="m -62.643401,569.25066 1.478985,-0.003 1.025688,3.66384 0.94183,-3.65117 1.689578,-1.3e-4 -1.909988,4.80674 c 0,0 -0.402516,1.41786 -1.115336,1.93826 -1.005747,0.73426 -3.421892,0.49784 -3.421892,0.49784 l 0.738144,-1.08723 c 0,0 1.37551,0.24533 1.919903,-0.097 0.233313,-0.1467 0.381125,-0.48451 0.410634,-0.74736 0.02636,-0.23484 -0.137778,-0.69989 -0.137778,-0.69989 z"
       id="path12" /></g></svg>
