<?xml version="1.0" encoding="UTF-8" standalone="no"?>
<!-- Created with Inkscape (http://www.inkscape.org/) -->

<svg
   width="30.374607mm"
   height="11.653053mm"
   viewBox="0 0 30.374607 11.653053"
   version="1.1"
   id="svg1"
   xml:space="preserve"
   sodipodi:docname="keyflow-logo.svg"
   inkscape:version="1.4.2 (ebf0e940d0, 2025-05-08)"
   xmlns:inkscape="http://www.inkscape.org/namespaces/inkscape"
   xmlns:sodipodi="http://sodipodi.sourceforge.net/DTD/sodipodi-0.dtd"
   xmlns="http://www.w3.org/2000/svg"
   xmlns:svg="http://www.w3.org/2000/svg"><sodipodi:namedview
     id="namedview1"
     pagecolor="#ffffff"
     bordercolor="#000000"
     borderopacity="0.25"
     inkscape:showpageshadow="2"
     inkscape:pageopacity="0.0"
     inkscape:pagecheckerboard="0"
     inkscape:deskcolor="#d1d1d1"
     inkscape:document-units="mm"
     inkscape:zoom="8.0000001"
     inkscape:cx="39.3125"
     inkscape:cy="6.5624999"
     inkscape:window-width="1910"
     inkscape:window-height="1033"
     inkscape:window-x="0"
     inkscape:window-y="0"
     inkscape:window-maximized="1"
     inkscape:current-layer="svg1" /><defs
     id="defs1"><rect
       x="-5.5"
       y="-10"
       width="128.25"
       height="34.25"
       id="rect2" /></defs><g
     id="layer6"
     transform="translate(136.29799,-230.73396)"><circle
       cx="-108.37138"
       cy="233.70381"
       r="0.61200005"
       fill="#40a02b"
       id="circle15-6-9-0-4"
       style="fill:#a6d189;fill-opacity:1;stroke-width:0.204" /><rect
       x="-106.33139"
       y="232.68381"
       width="0.40799999"
       height="4.0799999"
       fill="#40a02b"
       id="rect15-1-9-0-0"
       style="fill:#a6d189;fill-opacity:1;stroke-width:0.204"><animate
         attributeName="opacity"
         values="1;0;1"
         dur="1.2s"
         repeatCount="indefinite" /></rect><rect
       x="-136.29799"
       y="240.65874"
       width="0.98758751"
       height="0.98758751"
       rx="0.24689688"
       fill="#6c6f85"
       opacity="0.4"
       id="rect4-29-4-47-7-2"
       style="opacity:1;fill:#a6d189;fill-opacity:1;stroke-width:0.123449" /><rect
       x="-134.44627"
       y="240.16493"
       width="0.98758751"
       height="0.98758751"
       rx="0.24689688"
       fill="#6c6f85"
       opacity="0.3"
       id="rect5-96-0-9-8-6"
       style="opacity:1;fill:#a6d189;fill-opacity:1;stroke-width:0.123449" /><rect
       x="-132.59453"
       y="239.79459"
       width="0.98758751"
       height="0.98758751"
       rx="0.24689688"
       fill="#6c6f85"
       opacity="0.4"
       id="rect6-0-9-3-2-0"
       style="opacity:1;fill:#a6d189;fill-opacity:1;stroke-width:0.123449" /><rect
       x="-130.74281"
       y="239.67116"
       width="0.98758751"
       height="0.98758751"
       rx="0.24689688"
       fill="#6c6f85"
       opacity="0.3"
       id="rect7-27-1-9-5-6"
       style="opacity:1;fill:#a6d189;fill-opacity:1;stroke-width:0.123449" /><rect
       x="-128.8911"
       y="239.79459"
       width="0.98758751"
       height="0.98758751"
       rx="0.24689688"
       fill="#6c6f85"
       opacity="0.4"
       id="rect8-6-9-2-3-6"
       style="opacity:1;fill:#e78284;fill-opacity:1;stroke-width:0.123449" /><rect
       x="-127.03936"
       y="240.16493"
       width="0.98758751"
       height="0.98758751"
       rx="0.24689688"
       fill="#6c6f85"
       opacity="0.3"
       id="rect9-1-6-8-4-4"
       style="opacity:1;fill:#a6d189;fill-opacity:1;stroke-width:0.123449" /><rect
       x="-125.18764"
       y="240.65874"
       width="0.98758751"
       height="0.98758751"
       rx="0.24689688"
       fill="#6c6f85"
       opacity="0.4"
       id="rect10-3-2-3-9-6"
       style="opacity:1;fill:#a6d189;fill-opacity:1;stroke-width:0.123449" /><rect
       x="-123.33589"
       y="241.02907"
       width="0.98758751"
       height="0.98758751"
       rx="0.24689688"
       fill="#6c6f85"
       opacity="0.3"
       id="rect11-2-5-01-0-2"
       style="opacity:1;fill:#a6d189;fill-opacity:1;stroke-width:0.123449" /><rect
       x="-121.48421"
       y="241.27599"
       width="0.98758751"
       height="0.98758751"
       rx="0.24689688"
       fill="#6c6f85"
       opacity="0.4"
       id="rect12-1-4-78-2-8"
       style="opacity:1;fill:#a6d189;fill-opacity:1;stroke-width:0.123449" /><rect
       x="-119.63245"
       y="241.39941"
       width="0.98758751"
       height="0.98758751"
       rx="0.24689688"
       fill="#6c6f85"
       opacity="0.3"
       id="rect13-5-4-91-0-9"
       style="opacity:1;fill:#a6d189;fill-opacity:1;stroke-width:0.123449" /><rect
       x="-117.78072"
       y="241.39941"
       width="0.98758751"
       height="0.98758751"
       rx="0.24689688"
       fill="#6c6f85"
       opacity="0.4"
       id="rect14-9-9-5-1-6"
       style="opacity:1;fill:#e78284;fill-opacity:1;stroke-width:0.123449" /></g><path
     id="path3"
     style="fill:#bdc2ce;fill-opacity:1;stroke:none;stroke-width:0.264583;stroke-linecap:round;stroke-linejoin:round"
     d="m 5.0910463,3.0408304 c -1.093404,-0.00518 -1.174089,1.2567708 -1.174089,1.2567708 0,0 -0.01946,1.2745596 1.091406,1.3063802 0.925442,0.026509 1.157552,-0.6201172 1.157552,-0.6201172 l -0.537435,-0.107487 c 0,0 -0.289153,0.3395723 -0.578776,0.2893881 -0.506616,-0.087784 -0.487825,-0.6697266 -0.487825,-0.6697266 l 1.67845,-0.00827 c 0,0 0.112803,-1.4409571 -1.149283,-1.4469401 z m 0.074414,0.5374349 c 0.533667,0.00699 0.529166,0.5539713 0.529166,0.5539713 l -1.066601,0.016536 c 0,2e-7 0.04539,-0.5769578 0.537435,-0.5705073 z" /><path
     style="fill:#bdc2ce;fill-opacity:1;stroke:none;stroke-width:0.264583;stroke-linecap:round;stroke-linejoin:round"
     d="m 6.3808895,3.0656351 0.677995,0.00827 0.578776,1.8272786 0.587044,-1.8438151 0.735872,-0.00827 -1.1368812,2.8236002 c 0,0 -0.2168938,0.5241639 -0.4929928,0.631486 -0.233989,0.090954 -0.751375,-0.00723 -0.751375,-0.00723 l 0.09922,-0.5208984 c 0,0 0.378534,0.093079 0.499194,0.010336 0.148075,-0.1015437 0.145728,-0.4898926 0.145728,-0.4898926 z"
     id="path4"
     sodipodi:nodetypes="ccccccsccscc" /><path
     style="fill:#bdc2ce;fill-opacity:1;stroke:none;stroke-width:0.264583;stroke-linecap:round;stroke-linejoin:round"
     d="m 10.600927,2.1341624 0.01654,3.3734375 0.611849,-0.016536 -0.01654,-1.3063802 1.169904,0.010689 -0.0097,-0.5009372 -1.143681,-0.00585 -0.01654,-0.9921875 1.504817,-0.016536 V 2.1341628 Z"
     id="path5"
     sodipodi:nodetypes="ccccccccccc" /><path
     style="fill:#bdc2ce;fill-opacity:1;stroke:none;stroke-width:0.264583;stroke-linecap:round;stroke-linejoin:round"
     d="m 13.928552,5.0194198 -0.162229,-0.1143353 0.0096,-2.737849 -0.64491,-10e-8 0.03307,2.9930989 c 0,0 0.02966,0.2410115 0.236353,0.3283504 0.180222,0.076155 0.788907,0.051988 0.788907,0.051988 l -0.06615,-0.5457031"
     id="path6"
     sodipodi:nodetypes="cccccscc" /><path
     id="path7"
     style="fill:#bdc2ce;fill-opacity:1;stroke:none;stroke-width:0.264583;stroke-linecap:round;stroke-linejoin:round"
     d="m 15.606995,3.0110169 c -0.715216,-3.6e-6 -1.295015,0.5797949 -1.295011,1.2950114 -4e-6,0.7152165 0.579795,1.295015 1.295011,1.2950114 0.715217,4.2e-6 1.183932,-0.5681015 1.183928,-1.2833184 4e-6,-0.7152168 -0.468711,-1.3067086 -1.183928,-1.3067044 z m 0,0.5555217 c 0.384257,-1.547e-4 0.526339,0.3263253 0.526533,0.7508889 6.4e-5,0.4247656 -0.142093,0.7866398 -0.526533,0.786485 -0.384238,-1.608e-4 -0.613778,-0.3736356 -0.613714,-0.798178 1.95e-4,-0.4243406 0.229659,-0.7390353 0.613714,-0.7391959 z"
     sodipodi:nodetypes="cccccccccc" /><path
     style="fill:#bdc2ce;fill-opacity:1;stroke:none;stroke-width:0.264583;stroke-linecap:round;stroke-linejoin:round"
     d="m 16.908528,3.1171225 h 0.686263 l 0.446485,1.8355468 0.438216,-1.8355468 h 0.611849 l 0.421679,1.8107422 0.405144,-1.8107422 0.74414,-0.00827 -0.752409,2.5135416 -0.323886,0.0039 -0.362377,0.00437 -0.429948,-1.661914 -0.413411,1.6453776 -0.361233,0.00406 -0.374639,0.00421 z"
     id="path8"
     sodipodi:nodetypes="cccccccccccccccc" /><path
     id="rect1"
     style="fill:#bdc2ce;fill-opacity:1;stroke-width:0.0486209;stroke-linecap:round;stroke-linejoin:round"
     d="M 2.785502,2.2801539 1.8621986,3.6268213 V 2.3080702 c 0,-0.1038125 -0.092373,-0.187457 -0.2071142,-0.187457 H 1.1231971 c -0.1147405,0 -0.20711417,0.083648 -0.20711417,0.187457 v 3.1288393 c 0,0.1038125 0.092373,0.1873616 0.20711417,0.1873616 h 0.5318873 c 0.1147405,0 0.2071142,-0.083538 0.2071142,-0.1873616 V 4.4454008 L 2.1456631,4.2776091 c 0,0 0.525209,1.0982312 0.6468386,1.2292518 0.044844,0.04831 0.1483338,0.1026566 0.2050512,0.1070968 0.08991,0.00697 0.5872468,0.012477 0.7394899,0.0022 0.082057,-0.0055 0.1089481,-0.098528 0.082634,-0.1487833 C 3.6951839,5.2296037 2.8324347,3.6881107 2.8324347,3.6881107 c 0,0 0.8474986,-1.2128341 0.9923598,-1.4279781 C 3.8698895,2.1931626 3.8722295,2.110065 3.8121895,2.1040469 3.6336,2.0862494 3.1341209,2.1179913 3.0315417,2.1307431 2.8950332,2.1476232 2.7854978,2.2801869 2.7854978,2.2801869 Z"
     sodipodi:nodetypes="ccssssssssccsssscssscc" /></svg>
