<?xml version="1.0" encoding="UTF-8" standalone="no"?>
<!-- Created with Inkscape (http://www.inkscape.org/) -->

<svg
   width="46.836033mm"
   height="14.444209mm"
   viewBox="0 0 46.836033 14.444209"
   version="1.1"
   id="svg1"
   xml:space="preserve"
   sodipodi:docname="keyflow.svg"
   inkscape:version="1.4.2 (ebf0e940d0, 2025-05-08)"
   xmlns:inkscape="http://www.inkscape.org/namespaces/inkscape"
   xmlns:sodipodi="http://sodipodi.sourceforge.net/DTD/sodipodi-0.dtd"
   xmlns="http://www.w3.org/2000/svg"
   xmlns:svg="http://www.w3.org/2000/svg"><sodipodi:namedview
     id="namedview1"
     pagecolor="#ffffff"
     bordercolor="#000000"
     borderopacity="0.25"
     inkscape:showpageshadow="2"
     inkscape:pageopacity="0.0"
     inkscape:pagecheckerboard="0"
     inkscape:deskcolor="#d1d1d1"
     inkscape:document-units="mm"
     inkscape:zoom="16"
     inkscape:cx="83.906249"
     inkscape:cy="10.03125"
     inkscape:window-width="1910"
     inkscape:window-height="1033"
     inkscape:window-x="0"
     inkscape:window-y="0"
     inkscape:window-maximized="1"
     inkscape:current-layer="layer1" /><defs
     id="defs1" /><g
     id="layer1"
     transform="translate(74.604402,-567.09936)"><circle
       cx="-36.06171"
       cy="570.83295"
       r="0.84464729"
       fill="#40a02b"
       id="circle15-6-9-0-4"
       style="fill-opacity:1;stroke-width:0.281549" /><rect
       x="-33.246265"
       y="569.42529"
       width="0.56309807"
       height="5.630981"
       fill="#40a02b"
       id="rect15-1-9-0-0"
       style="fill-opacity:1;stroke-width:0.281549"><animate
         attributeName="opacity"
         values="1;0;1"
         dur="1.2s"
         repeatCount="indefinite" /></rect><path
       d="m -44.642966,573.48187 c 0,0 0.142822,0.33175 0.473691,0.33436 0.330817,0.003 0.413182,-0.31715 0.413182,-0.31715 l 0.897191,-1.76029 0.941905,1.74553 c 0,0 0.06885,0.33906 0.426118,0.33854 0.357263,-5.2e-4 0.501285,-0.29681 0.501285,-0.29681 l 1.178526,-3.64065 c -0.0011,-0.19301 -0.517142,-0.32498 -0.76731,-0.23161 -0.208235,0.0777 -0.207765,0.21126 -0.355229,0.56467 -0.297955,0.71447 -0.602085,2.24295 -0.602085,2.24295 l -0.891422,-1.74381 c 0,0 -0.07715,-0.31089 -0.426066,-0.3088 -0.349022,0.003 -0.412608,0.29733 -0.412608,0.29733 l -0.811008,1.76675 c 0,0 -0.313498,-1.38101 -0.559201,-2.08813 -0.121122,-0.34845 -0.167589,-0.57792 -0.426578,-0.68146 -0.10949,-0.0417 -0.285114,-0.0755 -0.423531,-0.0441 -0.136805,0.0311 -0.358766,0.22001 -0.358766,0.22001 0,0 0.837418,2.45067 1.201838,3.60263 z"
       id="path7-0-1-7-8-0-9"
       style="fill:#ccd0da;fill-opacity:1;stroke-width:0.247887"
       sodipodi:nodetypes="cccccsccascccccssaccc" /><path
       d="m -55.401538,571.2422 -0.0078,-0.99996 -1.725302,0.0209 -0.002,-1.06198 -0.0068,-0.44965 0.422623,10e-4 1.939369,-0.0365 -0.0036,-0.62799 0.0027,-0.43167 -0.491124,-7.6e-4 -2.432344,0.004 -0.641534,0.005 -0.0035,0.86479 0.0099,0.41052 c 0.0073,1.68199 5.01e-4,5.39505 5.01e-4,5.39505 l 1.214002,-0.005 c 0,0 -0.0078,-2.1852 -0.012,-3.07453"
       id="path8-2-1-51-0"
       style="fill:#ccd0da;fill-opacity:1;stroke-width:0.274777"
       sodipodi:nodetypes="ccccccccccccccccc" /><path
       id="path4-7-8-6-4"
       mask="none"
       d="m -48.463672,569.51477 c -1.242288,0.005 -2.251425,0.96442 -2.248312,2.22692 0.0031,1.26271 1.000912,2.13861 2.243492,2.13698 1.242543,-0.001 2.260202,-0.88002 2.260196,-2.14273 l -5.74e-4,-0.0108 c -0.0065,-1.26255 -0.947257,-2.22053 -2.189652,-2.2157 z m 0.0309,0.82709 c 0.781994,-0.003 1.004366,0.5614 1.004366,1.39078 v 0.0487 c 0,0.82922 -0.23887,1.28154 -1.020722,1.28246 -0.78169,10e-4 -1.087423,-0.53999 -1.089456,-1.36903 -0.0022,-0.82911 0.300295,-1.34756 1.082039,-1.35082 z"
       style="fill:#ccd0da;fill-opacity:1;stroke-width:0.328327" /><rect
       x="-74.604416"
       y="579.09491"
       width="1.3630115"
       height="1.3630115"
       rx="0.2833752"
       fill="#6c6f85"
       opacity="0.4"
       id="rect4-29-4-47-7-2"
       style="opacity:1;fill:#40a02b;fill-opacity:1;stroke-width:0.170377"
       ry="0.32564098" /><rect
       x="-72.048782"
       y="578.41339"
       width="1.3630115"
       height="1.3630115"
       rx="0.34075287"
       fill="#6c6f85"
       opacity="0.3"
       id="rect5-96-0-9-8-6"
       style="opacity:1;fill:#40a02b;fill-opacity:1;stroke-width:0.170377" /><rect
       x="-69.493111"
       y="577.90222"
       width="1.3630115"
       height="1.3630115"
       rx="0.34075287"
       fill="#6c6f85"
       opacity="0.4"
       id="rect6-0-9-3-2-0"
       style="opacity:1;fill:#40a02b;fill-opacity:1;stroke-width:0.170377" /><rect
       x="-66.9375"
       y="577.73187"
       width="1.3630115"
       height="1.3630115"
       rx="0.34075287"
       fill="#6c6f85"
       opacity="0.3"
       id="rect7-27-1-9-5-6"
       style="opacity:1;fill:#40a02b;fill-opacity:1;stroke-width:0.170377" /><rect
       x="-64.381851"
       y="577.90222"
       width="1.3630115"
       height="1.3630115"
       rx="0.34075287"
       fill="#6c6f85"
       opacity="0.4"
       id="rect8-6-9-2-3-6"
       style="opacity:1;fill:#40a02b;fill-opacity:1;stroke-width:0.170377" /><rect
       x="-61.826199"
       y="578.41339"
       width="1.3630115"
       height="1.3630115"
       rx="0.34075287"
       fill="#6c6f85"
       opacity="0.3"
       id="rect9-1-6-8-4-4"
       style="opacity:1;fill:#e64d2d;fill-opacity:1;stroke-width:0.170377" /><rect
       x="-59.270546"
       y="579.09491"
       width="1.3630115"
       height="1.3630115"
       rx="0.34075287"
       fill="#6c6f85"
       opacity="0.4"
       id="rect10-3-2-3-9-6"
       style="opacity:1;fill:#40a02b;fill-opacity:1;stroke-width:0.170377" /><rect
       x="-56.714897"
       y="579.60602"
       width="1.3630115"
       height="1.3630115"
       rx="0.34075287"
       fill="#6c6f85"
       opacity="0.3"
       id="rect11-2-5-01-0-2"
       style="opacity:1;fill:#40a02b;fill-opacity:1;stroke-width:0.170377" /><rect
       x="-54.159286"
       y="579.94678"
       width="1.3630115"
       height="1.3630115"
       rx="0.34075287"
       fill="#6c6f85"
       opacity="0.4"
       id="rect12-1-4-78-2-8"
       style="opacity:1;fill:#40a02b;fill-opacity:1;stroke-width:0.170377" /><rect
       x="-51.603596"
       y="580.11719"
       width="1.3630115"
       height="1.3630115"
       rx="0.34075287"
       fill="#6c6f85"
       opacity="0.3"
       id="rect13-5-4-91-0-9"
       style="opacity:1;fill:#40a02b;fill-opacity:1;stroke-width:0.170377" /><rect
       x="-49.047943"
       y="580.11719"
       width="1.3630115"
       height="1.3630115"
       rx="0.34075287"
       fill="#6c6f85"
       opacity="0.4"
       id="rect14-9-9-5-1-6"
       style="opacity:1;fill:#e64d2d;fill-opacity:1;stroke-width:0.170377" /><path
       style="fill:#ccd0da;fill-opacity:1;stroke-width:0.253761"
       d="m -63.898543,569.05387 1.323786,-0.003 0.918056,3.27937 0.842999,-3.26803 1.51228,-1.2e-4 -1.709561,4.30234 c 0,0 -0.360278,1.26908 -0.998298,1.73487 -0.900207,0.65721 -3.062812,0.4456 -3.062812,0.4456 l 0.660686,-0.97314 c 0,0 1.23117,0.21958 1.718436,-0.0868 0.20883,-0.1313 0.341132,-0.43366 0.367544,-0.66893 0.02359,-0.2102 -0.12332,-0.62645 -0.12332,-0.62645 z"
       id="path12" /><path
       id="rect1"
       style="fill:#ccd0da;fill-opacity:1;stroke-width:0.0841954;stroke-linecap:round;stroke-linejoin:round"
       d="m -70.871089,568.2074 -1.598858,2.332 v -2.36258 c 0,-0.12129 -0.09858,-0.24589 -0.241725,-0.24569 l -0.738665,10e-4 c -0.15192,2.1e-4 -0.275748,0.12434 -0.2748,0.23684 l 0.04677,5.55244 c 0.0015,0.17976 0.139344,0.27185 0.282177,0.27277 l 0.631665,0.004 c 0.159411,0.001 0.287883,-0.0991 0.288375,-0.24177 l 0.0062,-1.79964 0.490867,-0.29056 c 0,0 0.909489,1.90177 1.120112,2.12866 0.07765,0.0837 0.256866,0.17777 0.355081,0.18546 0.155695,0.0121 0.553898,0.0217 0.817533,0.004 0.142101,-0.0104 0.254808,-0.0879 0.209234,-0.17497 -0.215581,-0.41175 -1.709579,-3.0811 -1.709579,-3.0811 0,0 1.467588,-2.10022 1.71844,-2.47279 0.07809,-0.11602 0.08215,-0.29295 -0.02182,-0.30335 -0.309257,-0.0308 -0.777315,-0.0256 -0.954948,-0.003 -0.236389,0.0293 -0.426068,0.25879 -0.426068,0.25879 z"
       sodipodi:nodetypes="ccssssssssccsssscssscc" /><path
       id="path3"
       style="fill:#ccd0da;fill-opacity:1;stroke:none;stroke-width:0.524594;stroke-linecap:round;stroke-linejoin:round"
       d="m -66.80207,569.13011 c -2.167913,-0.01 -2.315764,1.69454 -2.327888,2.49183 -0.01283,0.84373 -0.03859,2.52709 2.163952,2.59018 1.834892,0.0525 2.2951,-1.22952 2.2951,-1.22952 l -1.065582,-0.2131 c 0,0 -0.746942,0.62366 -1.321182,0.52416 -1.004478,-0.17408 -0.910519,-1.30166 -0.910519,-1.30166 l 3.444825,0.007 c 0,0 0.223657,-2.85702 -2.278706,-2.86888 z m 0.0306,1.05244 c 1.058112,0.0139 1.166118,1.11152 1.166118,1.11152 l -2.383711,0.0327 c 0,0 0.242,-1.15565 1.217593,-1.14284 z"
       sodipodi:nodetypes="csccccccccccccc" /><path
       style="fill:#ccd0da;fill-opacity:1;stroke:none;stroke-width:0.510137;stroke-linecap:round;stroke-linejoin:round"
       d="m -52.481521,573.13201 0.01851,-5.27878 h -1.243438 l 0.06376,5.77092 c 0,0 0.05719,0.4647 0.455707,0.63308 0.347483,0.14692 1.521077,0.10026 1.521077,0.10026 l 0.289436,-0.99038"
       id="path6"
       sodipodi:nodetypes="ccccscc" /></g></svg>
