<?xml version="1.0" encoding="UTF-8" standalone="no"?>
<!-- Created with Inkscape (http://www.inkscape.org/) -->

<svg
   width="8.0366135mm"
   height="2.5540431mm"
   viewBox="0 0 8.0366135 2.5540431"
   version="1.1"
   id="svg1"
   xml:space="preserve"
   sodipodi:docname="keyflow.svg"
   inkscape:version="1.4.2 (ebf0e940d0, 2025-05-08)"
   xmlns:inkscape="http://www.inkscape.org/namespaces/inkscape"
   xmlns:sodipodi="http://sodipodi.sourceforge.net/DTD/sodipodi-0.dtd"
   xmlns="http://www.w3.org/2000/svg"
   xmlns:svg="http://www.w3.org/2000/svg"><sodipodi:namedview
     id="namedview1"
     pagecolor="#ffffff"
     bordercolor="#000000"
     borderopacity="0.25"
     inkscape:showpageshadow="2"
     inkscape:pageopacity="0.0"
     inkscape:pagecheckerboard="0"
     inkscape:deskcolor="#d1d1d1"
     inkscape:document-units="mm"
     inkscape:zoom="22.627417"
     inkscape:cx="11.689359"
     inkscape:cy="1.8340582"
     inkscape:window-width="1908"
     inkscape:window-height="1031"
     inkscape:window-x="0"
     inkscape:window-y="0"
     inkscape:window-maximized="1"
     inkscape:current-layer="svg1" /><defs
     id="defs1" /><g
     id="layer1"
     transform="matrix(0.94528983,0,0,0.94528983,-59.267778,-200.97777)"
     inkscape:export-filename="keyflow.svg"
     inkscape:export-xdpi="96"
     inkscape:export-ydpi="96"><circle
       cx="-3.0981514"
       cy="190.53108"
       r="0.61200005"
       fill="#40a02b"
       id="circle15-6-9-0-4"
       style="fill-opacity:1;stroke-width:0.204"
       transform="matrix(0.26458333,0,0,0.26458333,71.118132,163.0629)" /><rect
       x="-1.0581582"
       y="189.51108"
       width="0.40799999"
       height="4.0799999"
       fill="#40a02b"
       id="rect15-1-9-0-0"
       style="fill-opacity:1;stroke-width:0.204"
       transform="matrix(0.26458333,0,0,0.26458333,71.118132,163.0629)"><animate
         attributeName="opacity"
         values="1;0;1"
         dur="1.2s"
         repeatCount="indefinite" /></rect><path
       d="m -16.174027,188.1454 -0.0072,4.11222 c 0.0336,0.55528 0.619317,-0.0283 0.619317,-0.0283 0,0 0.583692,-4.50572 0.179626,-4.36319 z"
       id="path2-8-0-4-6"
       style="fill:#ccd0da;fill-opacity:1;stroke-width:0.20657"
       transform="matrix(0.26458333,0,0,0.26458333,71.118132,163.0629)" /><path
       d="m -10.538157,192.25686 c 0,0 0.0741,0.22067 0.31382,0.22263 0.2396897,0.002 0.2993897,-0.22974 0.2993897,-0.22974 l 0.65007,-1.27543 0.68247,1.26474 c 0,0 0.0499,0.2457 0.30876,0.24539 0.25885,-4.1e-4 0.30444,-0.2347 0.30444,-0.2347 l 0.874353,-2.71006 c -8.24e-4,-0.13997 -0.0072,-0.2871 -0.263574,-0.2942 -0.180632,-0.005 -0.3993057,0.20093 -0.5101577,0.38003 -0.197223,0.31855 -0.4375313,1.87245 -0.4375313,1.87245 l -0.64589,-1.26347 c 0,0 -0.05591,-0.1931 -0.308706,-0.19161 -0.25287,0.002 -0.298944,0.18322 -0.298944,0.18322 l -0.5876267,1.28009 c 0,0 -0.251237,-1.42156 -0.378592,-1.74941 -0.05967,-0.1536 -0.310027,-0.51363 -0.496034,-0.49342 -0.197945,0.0262 -0.315577,0.20254 -0.267096,0.37554 0,0 0.496806,1.78328 0.760849,2.61795 z"
       id="path7-0-1-7-8-0-9"
       style="fill:#ccd0da;fill-opacity:1;stroke-width:0.17961"
       transform="matrix(0.26458333,0,0,0.26458333,71.118132,163.0629)" /><path
       d="m -17.402333,190.38572 c 0.470154,-0.0105 0.452715,-0.70934 0.02264,-0.70685 l -1.036761,0.006 -4.64e-4,-0.77791 c 0,0 -0.02499,-0.1598 0.06857,-0.25772 0.06509,-0.0681 0.154191,-0.0458 0.154191,-0.0458 l 1.30072,-0.0132 c 0,0 0.803514,-0.82173 -0.118141,-0.7786 l -1.843282,-0.007 c -0.412504,-0.002 -0.361941,0.4036 -0.361941,0.4036 l -0.0029,0.53355 c 0.0054,1.2187 0.0013,2.43773 -0.0031,3.65626 0,0 0.127507,0.1512 0.375168,0.15138 0.336196,2.4e-4 0.380511,-0.14556 0.380511,-0.14556 l 0.01987,-1.52569 c 0,0 -0.01567,-0.24408 0.117953,-0.37562 0.133627,-0.13154 0.383093,-0.11441 0.383093,-0.11441"
       id="path8-2-1-51-0"
       style="fill:#ccd0da;fill-opacity:1;stroke-width:0.199093"
       sodipodi:nodetypes="csccccccccccccccc"
       transform="matrix(0.26458333,0,0,0.26458333,71.118132,163.0629)" /><path
       id="path4-7-8-6-4"
       mask="none"
       d="m -13.274038,189.48252 c -0.866047,0.004 -1.569557,0.67233 -1.567386,1.55245 0.0022,0.88032 0.697776,1.49092 1.564027,1.4898 0.866228,-10e-4 1.575677,-0.61349 1.575673,-1.49379 l -4e-4,-0.008 c -0.0045,-0.88019 -0.660371,-1.54803 -1.526494,-1.54467 z m 0.02167,0.57661 c 0.545159,-0.002 0.700185,0.39136 0.700185,0.96954 v 0.0324 c 0,0.57806 -0.166544,0.8934 -0.711588,0.89403 -0.544947,7.6e-4 -0.758087,-0.37646 -0.759504,-0.95441 -0.0015,-0.57799 0.209352,-0.93943 0.754334,-0.94169 z"
       style="fill:#ccd0da;fill-opacity:1;stroke-width:0.22889"
       transform="matrix(0.26458333,0,0,0.26458333,71.118132,163.0629)" /><path
       id="path18-8"
       d="m -23.193427,188.69773 c 0.430667,1.15011 0.862547,2.30065 1.281648,3.45463 -0.0493,0.418 -0.528199,0.90251 -0.949329,0.89881 -0.424,-0.004 -0.670049,0.003 -0.670049,0.003 -0.229353,0.36727 -0.309122,0.41881 -0.545968,0.68505 0,0 0.729566,0.0246 1.430956,0.005 0.75355,0.006 1.398749,-1.22075 1.564129,-1.64761 h 4.1e-4 l 0.45343,-0.96023 1.02318,-2.42887 -0.93194,-0.002 -0.85346,2.53526 -0.86461,-2.54243 z"
       style="fill:#ccd0da;fill-opacity:1;stroke-width:0.204"
       sodipodi:nodetypes="cccccccccccccc"
       transform="matrix(0.26458333,0,0,0.26458333,71.118132,163.0629)" /><rect
       x="-31.024757"
       y="195.48601"
       width="0.98758751"
       height="0.98758751"
       rx="0.24689688"
       fill="#6c6f85"
       opacity="0.4"
       id="rect4-29-4-47-7-2"
       style="opacity:1;fill:#40a02b;fill-opacity:1;stroke-width:0.123449"
       transform="matrix(0.26458333,0,0,0.26458333,71.118132,163.0629)" /><rect
       x="-29.173042"
       y="194.9922"
       width="0.98758751"
       height="0.98758751"
       rx="0.24689688"
       fill="#6c6f85"
       opacity="0.3"
       id="rect5-96-0-9-8-6"
       style="opacity:1;fill:#40a02b;fill-opacity:1;stroke-width:0.123449"
       transform="matrix(0.26458333,0,0,0.26458333,71.118132,163.0629)" /><rect
       x="-27.321297"
       y="194.62186"
       width="0.98758751"
       height="0.98758751"
       rx="0.24689688"
       fill="#6c6f85"
       opacity="0.4"
       id="rect6-0-9-3-2-0"
       style="opacity:1;fill:#40a02b;fill-opacity:1;stroke-width:0.123449"
       transform="matrix(0.26458333,0,0,0.26458333,71.118132,163.0629)" /><rect
       x="-25.469582"
       y="194.49843"
       width="0.98758751"
       height="0.98758751"
       rx="0.24689688"
       fill="#6c6f85"
       opacity="0.3"
       id="rect7-27-1-9-5-6"
       style="opacity:1;fill:#40a02b;fill-opacity:1;stroke-width:0.123449"
       transform="matrix(0.26458333,0,0,0.26458333,71.118132,163.0629)" /><rect
       x="-23.617867"
       y="194.62186"
       width="0.98758751"
       height="0.98758751"
       rx="0.24689688"
       fill="#6c6f85"
       opacity="0.4"
       id="rect8-6-9-2-3-6"
       style="opacity:1;fill:#40a02b;fill-opacity:1;stroke-width:0.123449"
       transform="matrix(0.26458333,0,0,0.26458333,71.118132,163.0629)" /><rect
       x="-21.766129"
       y="194.9922"
       width="0.98758751"
       height="0.98758751"
       rx="0.24689688"
       fill="#6c6f85"
       opacity="0.3"
       id="rect9-1-6-8-4-4"
       style="opacity:1;fill:#e64d2d;fill-opacity:1;stroke-width:0.123449"
       transform="matrix(0.26458333,0,0,0.26458333,71.118132,163.0629)" /><rect
       x="-19.914406"
       y="195.48601"
       width="0.98758751"
       height="0.98758751"
       rx="0.24689688"
       fill="#6c6f85"
       opacity="0.4"
       id="rect10-3-2-3-9-6"
       style="opacity:1;fill:#40a02b;fill-opacity:1;stroke-width:0.123449"
       transform="matrix(0.26458333,0,0,0.26458333,71.118132,163.0629)" /><rect
       x="-18.06266"
       y="195.85634"
       width="0.98758751"
       height="0.98758751"
       rx="0.24689688"
       fill="#6c6f85"
       opacity="0.3"
       id="rect11-2-5-01-0-2"
       style="opacity:1;fill:#40a02b;fill-opacity:1;stroke-width:0.123449"
       transform="matrix(0.26458333,0,0,0.26458333,71.118132,163.0629)"
       inkscape:label="rect11-2-5-01-0-2" /><rect
       x="-16.210976"
       y="196.10326"
       width="0.98758751"
       height="0.98758751"
       rx="0.24689688"
       fill="#6c6f85"
       opacity="0.4"
       id="rect12-1-4-78-2-8"
       style="opacity:1;fill:#40a02b;fill-opacity:1;stroke-width:0.123449"
       transform="matrix(0.26458333,0,0,0.26458333,71.118132,163.0629)" /><rect
       x="-14.359214"
       y="196.22668"
       width="0.98758751"
       height="0.98758751"
       rx="0.24689688"
       fill="#6c6f85"
       opacity="0.3"
       id="rect13-5-4-91-0-9"
       style="opacity:1;fill:#40a02b;fill-opacity:1;stroke-width:0.123449"
       transform="matrix(0.26458333,0,0,0.26458333,71.118132,163.0629)" /><rect
       x="-12.507491"
       y="196.22668"
       width="0.98758751"
       height="0.98758751"
       rx="0.24689688"
       fill="#6c6f85"
       opacity="0.4"
       id="rect14-9-9-5-1-6"
       style="opacity:1;fill:#e64d2d;fill-opacity:1;stroke-width:0.123449"
       transform="matrix(0.26458333,0,0,0.26458333,71.118132,163.0629)" /><path
       id="path2"
       style="fill:#ccd0da;fill-opacity:1;stroke:none;stroke-width:0.058413"
       d="m 64.40422,212.96355 c -0.258736,0 -0.468483,0.23786 -0.468482,0.53127 -10e-7,0.29341 0.263563,0.53396 0.522124,0.54347 0.139129,0.005 0.321474,-0.0523 0.321474,-0.0523 l 0.02172,-0.21712 c 0,0 -0.139449,0.0858 -0.302738,0.0713 -0.172702,-0.0153 -0.309518,-0.10512 -0.309516,-0.22251 l 0.541799,-0.002 c 0.113714,-3.6e-4 0.100327,-0.15911 0.100327,-0.15911 0.0068,-0.27634 -0.167911,-0.49286 -0.426647,-0.49286 z m 0.185871,0.47955 -0.380234,-0.004 c -0.0083,-0.0821 0.02839,-0.2352 0.189575,-0.23863 0.177749,-2e-5 0.204376,0.15579 0.190659,0.24248 z"
       sodipodi:nodetypes="cssccscscscccccc" /><path
       style="fill:#ccd0da;fill-opacity:1;stroke:none;stroke-width:0.058413"
       d="m 62.865793,212.7569 0.0034,1.22262 h 0.262964 l 0.0034,-0.44055 0.09904,-0.0683 0.327852,0.50886 0.303946,0.003 -0.437136,-0.67619 0.42689,-0.54984 h -0.290285 l -0.430306,0.55667 -0.0068,-0.56008 z"
       id="path3" /></g></svg>
