<?xml version="1.0" encoding="UTF-8" standalone="no"?>
<!-- Created with Inkscape (http://www.inkscape.org/) -->

<svg
   width="5.015553mm"
   height="4.5148697mm"
   viewBox="0 0 5.015553 4.5148697"
   version="1.1"
   id="svg1"
   xml:space="preserve"
   xmlns="http://www.w3.org/2000/svg"
   xmlns:svg="http://www.w3.org/2000/svg"><defs
     id="defs1" /><g
     id="layer1"
     transform="translate(-94.191658,-60.548274)"><g
       id="g5"
       transform="matrix(0.13313228,0,0,0.13313228,79.749581,49.682046)"
       style="fill:#ffffff;fill-opacity:1"><path
         id="path2"
         style="fill:#ffffff;fill-opacity:1;stroke-width:0.264583;stroke-linecap:round;stroke-linejoin:round"
         d="m 128.59346,81.619772 c -0.54152,-7.05e-4 -0.85912,0.559347 -0.85912,1.023246 v 0.546736 c 0,0.463899 0.31905,1.166655 0.85269,1.162754 l 1.76051,-0.01287 0.0453,2.020986 c -3.31725,0.208881 -5.94069,0.817591 -8.37179,3.114527 0,0 -0.44602,1.226611 0.27754,1.910744 0.70849,0.669896 1.94727,0.372603 1.94727,0.372603 2.01292,-1.673692 4.05525,-2.348053 6.6688,-2.497896 3.47072,-0.19891 6.42749,0.777269 8.89286,3.228275 4.68715,4.659392 4.5792,11.329213 0.0689,16.159973 -4.50734,4.8275 -10.97999,5.49026 -15.95032,1.14093 0,0 -1.13586,-0.48109 -1.89277,0.50773 -0.6363,0.83126 0.0497,1.79486 0.0497,1.79486 5.8914,5.1648 14.81933,4.35672 20.16621,-1.36994 5.34691,-5.72664 5.18059,-14.664175 -0.37569,-20.187907 -2.50749,-2.492842 -5.5321,-3.963137 -9.02183,-4.183494 l -0.0543,-2.041107 1.77536,-0.0051 c 0.6735,-0.0019 0.81387,-0.511436 0.81387,-1.115072 v -0.546736 c 0,-0.463899 -0.2413,-1.014707 -0.83716,-1.015483 z" /><path
         id="path3"
         style="fill:#ffffff;fill-opacity:1;stroke-width:0.264583;stroke-linecap:round;stroke-linejoin:round"
         d="m 136.90741,95.171452 c -0.23536,0 -0.46709,0.09371 -0.65113,0.270268 l -4.0518,3.887121 c -0.20876,-0.07316 -0.45033,-0.143483 -0.67153,-0.143523 -1.08521,2.2e-4 -2.22829,1.011792 -2.22823,2.097002 -7e-5,1.08521 0.82817,2.32603 2.33026,2.27799 1.40455,-0.0449 2.3053,-1.41228 1.87369,-2.72661 l 4.31134,-3.828281 c 0.38141,-0.33868 0.36068,-0.941564 0,-1.302246 l -0.26148,-0.261483 c -0.18034,-0.180341 -0.41577,-0.270268 -0.65112,-0.270268 z" /><rect
         style="fill:#ffffff;fill-opacity:1;stroke-width:0.264583;stroke-linecap:round;stroke-linejoin:round"
         id="rect3"
         width="11.474777"
         height="2.4634221"
         x="112.43695"
         y="93.766281"
         ry="0.83736277" /><rect
         style="fill:#ffffff;fill-opacity:1;stroke-width:0.264583;stroke-linecap:round;stroke-linejoin:round"
         id="rect4"
         width="15.223839"
         height="2.5769534"
         x="108.47916"
         y="99.507202"
         ry="0.83736277" /><rect
         style="fill:#ffffff;fill-opacity:1;stroke-width:0.264583;stroke-linecap:round;stroke-linejoin:round"
         id="rect5"
         width="10.115171"
         height="2.3445263"
         x="113.31296"
         y="105.4401"
         ry="0.83736277" /></g></g></svg>
