<?xml version="1.0" encoding="UTF-8" standalone="no"?>
<!-- Created with Inkscape (http://www.inkscape.org/) -->

<svg
   width="11.993584mm"
   height="11.993066mm"
   viewBox="0 0 11.993584 11.993066"
   version="1.1"
   id="svg1"
   xml:space="preserve"
   xmlns="http://www.w3.org/2000/svg"
   xmlns:svg="http://www.w3.org/2000/svg"><defs
     id="defs1" /><g
     id="layer1"
     transform="translate(-30.888347,-58.552572)"><g
       id="g1"><path
         id="path9"
         style="fill:#f2f2f2;fill-opacity:1;stroke-width:0.264583;stroke-linecap:round;stroke-linejoin:round"
         d="m 36.884884,58.552573 a 5.9966965,5.9966965 0 0 0 -5.996533,5.996533 5.9966965,5.9966965 0 0 0 5.996533,5.996533 5.9966965,5.9966965 0 0 0 5.99705,-5.996533 5.9966965,5.9966965 0 0 0 -5.99705,-5.996533 z m -0.04599,0.984436 a 5.004509,5.004509 0 0 1 5.004863,5.004346 5.004509,5.004509 0 0 1 -5.004863,5.004862 5.004509,5.004509 0 0 1 -5.004345,-5.004862 5.004509,5.004509 0 0 1 5.004345,-5.004346 z" /><path
         id="path10"
         style="fill:#cdd6e0;fill-opacity:1;stroke-width:0.264583;stroke-linecap:round;stroke-linejoin:round"
         d="m 33.764347,64.746436 -1.449007,0.01137 a 4.5541059,4.5541059 0 0 0 1.461926,3.204973 l 0.947746,-1.02371 c -0.600695,-0.58569 -0.959572,-1.353664 -0.960665,-2.192633 z" /><path
         id="path10-2"
         style="fill:#acb3ba;fill-opacity:1;stroke-width:0.264583;stroke-linecap:round;stroke-linejoin:round"
         d="m 33.588647,61.457231 a 4.5541059,4.5541059 0 0 0 -1.275374,3.160013 4.5541059,4.5541059 0 0 0 0.0021,0.14056 l 1.449524,-0.0083 c 0.0062,-0.229594 0.03406,-0.442471 0.07648,-0.638204 A 3.1171224,3.1171224 0 0 1 34.663,62.537268 Z" /><path
         id="path10-2-8"
         style="fill:#ffd15c;fill-opacity:1;stroke-width:0.264583;stroke-linecap:round;stroke-linejoin:round"
         d="m 36.864417,60.063517 c -1.236996,7.15e-4 -2.420482,0.504593 -3.278353,1.395781 l 1.071768,1.07952 c 0.09231,-0.08743 0.188586,-0.183148 0.282154,-0.254764 0.544096,-0.440184 1.220495,-0.68446 1.920296,-0.693498 z" /><path
         id="path10-6"
         style="fill:#f8b64c;fill-opacity:1;stroke-width:0.264583;stroke-linecap:round;stroke-linejoin:round"
         d="m 36.85666,61.590605 c 0,0 1.145821,-0.104662 2.2071,0.903821 l 1.087273,-1.033012 C 38.820979,60.055542 36.86131,60.062532 36.86131,60.062532 Z" /><path
         id="path10-2-3"
         style="fill:#ff7058;fill-opacity:1;stroke-width:0.264583;stroke-linecap:round;stroke-linejoin:round"
         d="m 39.065832,62.493344 c 0.591049,0.58547 0.952474,1.381883 0.952397,2.213817 0,0.01895 -1.72e-4,0.0379 -5.17e-4,0.05684 l 1.401984,0.01654 c 0,0 0.04965,-1.915013 -1.269173,-3.316593 z" /><path
         id="path10-2-8-8"
         style="fill:#f1543f;fill-opacity:1;stroke-width:0.264583;stroke-linecap:round;stroke-linejoin:round"
         d="m 40.018229,64.697343 c 5e-6,0.0033 5e-6,0.0065 0,0.0098 -1.05e-4,0.866516 -0.360897,1.693885 -0.995805,2.283582 l 0.887801,1.015442 c 0.876288,-0.823374 1.465696,-2.004707 1.509469,-3.240629 z" /><path
         id="path11"
         style="fill:#f2f2f2;fill-opacity:1;stroke-width:0.264583;stroke-linecap:round;stroke-linejoin:round"
         d="m 40.65695,62.569307 -4.143933,1.669149 H 36.5125 a 0.7152018,0.7152018 0 0 0 -0.05323,0.0217 0.7152018,0.7152018 0 0 0 -0.438733,0.657841 0.7152018,0.7152018 0 0 0 0.715202,0.715202 0.7152018,0.7152018 0 0 0 0.4377,-0.149345 c 0.01575,-0.0076 0.02985,-0.01513 0.04237,-0.02222 z m -3.876249,1.929598 a 0.38002384,0.38002384 0 0 1 0.379821,0.379822 0.38002384,0.38002384 0 0 1 -0.379821,0.380339 0.38002384,0.38002384 0 0 1 -0.380339,-0.380339 0.38002384,0.38002384 0 0 1 0.380339,-0.379822 z" /></g></g></svg>
